<?xml version="1.0" encoding="utf-8"?>
<!-- Generator: Adobe Illustrator 26.3.1, SVG Export Plug-In . SVG Version: 6.00 Build 0)  -->
<svg version="1.1" id="a" xmlns="http://www.w3.org/2000/svg" xmlns:xlink="http://www.w3.org/1999/xlink" x="0px" y="0px"
	 viewBox="0 0 31.4 33.4" style="enable-background:new 0 0 31.4 33.4;" xml:space="preserve">
<style type="text/css">
	.st0{fill:#FFFFFF;}
</style>
<path class="st0" d="M15.1,4c0.1,0.1,0.1,0.1,0.1,0.2s0,0.1,0,0.2c0,0.2,0,0.3,0,0.4v0.4c0,0.1,0,0.1,0,0.2s0,0.1,0,0.2s0,0.1,0,0.1
	v0.1c0,0.1,0,0.2,0,0.4c0,0.1,0,0.1,0,0.1v0.1c-0.2,0.5-0.4,1-0.8,1.5c-0.1,0.2-0.3,0.5-0.5,0.6s-0.4,0.4-0.6,0.6
	c-0.2,0-0.3,0.1-0.3,0.1c-0.1,0-0.1,0.1-0.3,0.2c-0.1,0.1-0.1,0.1-0.2,0.2s-0.1,0.1-0.1,0.2L12.1,10c-0.1,0.1-0.2,0.1-0.2,0.2
	s-0.1,0.1-0.2,0.1h-0.1h-0.1c-0.1,0.1-0.1,0.1-0.2,0.2c-0.1,0-0.2,0.1-0.2,0.1L11,10.7c0,0,0,0.1-0.1,0.1c0,0.1,0,0.1-0.1,0.1h-0.1
	c0,0,0.1,0,0.1,0.1c0.1,0,0.1,0.1,0.2,0.1c0.1,0.1,0.1,0.1,0.2,0.1c0.1,0,0.1,0.1,0.2,0.1c0.1,0,0.1,0.1,0.1,0.1s0,0.1,0.1,0.1
	c0,0.1,0,0.1,0.1,0.1c0,0,0,0.1,0.1,0.1l0.1,0.1v0.1c0.1,0.1,0.2,0.2,0.4,0.5c0.1,0.2,0.3,0.4,0.4,0.7c0.1,0.1,0.1,0.3,0.1,0.4
	c0,0.1,0,0.3,0.1,0.4v0.3l0,0v0.2l0.1,0.1c0,0.1,0.1,0.1,0.1,0.2c0,0.1,0,0.1,0,0.3s0,0.4,0,0.7C13,16,13,16.1,13,16.1
	c0.1-0.2,0.1-0.4,0.1-0.4s0,0,0,0.1v0.3c0,0.1,0,0.2,0.1,0.2c-0.1,0.1-0.2,0.3-0.2,0.5s-0.1,0.3-0.2,0.5l-0.1,0.2l-0.1,0.1v0.3
	c-0.1,0.1-0.1,0.2-0.1,0.3c0,0.1-0.1,0.2-0.1,0.3c-0.1,0.1-0.1,0.1,0,0.2c0,0.1,0,0.2-0.1,0.3c0,0.1-0.1,0.1-0.1,0.2
	c-0.1,0.1-0.1,0.2-0.3,0.3l-0.1,0.3c-0.1,0.1-0.1,0.2-0.2,0.3c-0.1,0.1-0.1,0.2-0.2,0.3c-0.2,0.1-0.3,0.2-0.3,0.3c0,0,0,0.1-0.1,0.2
	s-0.2,0.3-0.3,0.4c-0.1,0.2-0.2,0.3-0.3,0.4s-0.1,0.2-0.2,0.2C9.9,22,9.9,22,9.9,22l-0.1,0.1l-0.2,0.1l-0.1,0.1
	c-0.1,0.1-0.1,0.1-0.2,0.2c-0.1,0.1-0.1,0.1-0.2,0.2C9,22.9,8.9,23,8.8,23.1c-0.2,0.1-0.4,0.2-0.4,0.4c-0.1,0.1-0.3,0.2-0.4,0.3H7.9
	H7.8C7.7,23.9,7.7,24,7.6,24s-0.2,0.1-0.3,0.1c0,0.1-0.1,0.1-0.1,0.1s0,0.1-0.1,0.1c0,0,0,0-0.1,0v0.1c-0.1,0.1-0.3,0.2-0.6,0.3
	c-0.1,0-0.2,0.1-0.3,0.1S5.8,25,5.7,25.1H5.6c-0.2,0.1-0.3,0.2-0.5,0.3c-0.2,0.1-0.3,0.1-0.6,0.2l-0.3,0.1c-0.1,0.1-0.2,0.1-0.3,0.2
	c-0.1,0-0.2,0.1-0.2,0.1s-0.1,0-0.1-0.1c-0.2-0.1-0.2-0.2,0-0.4c0-0.1,0.1-0.1,0.2-0.2c0.1-0.1,0.2-0.1,0.3-0.2c0,0,0,0-0.1,0
	s-0.1,0-0.1-0.1L4,25.1c0,0.1,0,0.1,0,0.2c0.1,0,0.1,0.1,0,0.2H3.9H3.8H3.6c0,0.1,0.1,0.1,0.2,0.1l0.1-0.1c0.1-0.1,0.1-0.1,0-0.1
	s-0.1,0,0,0c0.1-0.1,0.2-0.2,0.4-0.3c0.1,0,0.1-0.1,0.2-0.1s0.1-0.1,0.2-0.2c0.2-0.1,0.4-0.2,0.4-0.2h0.1l0,0l0,0c0,0,0,0.1,0.1,0
	h0.1h0.1c0-0.1,0-0.1,0.1-0.1c0,0,0,0,0-0.1s-0.1-0.1-0.1-0.1s-0.1,0.1-0.2,0.1l-0.1,0.1c-0.1,0.1-0.1,0.1-0.2,0.1l-0.1-0.1
	c-0.1,0.2-0.2,0.3-0.3,0.3c-0.1,0-0.2-0.1-0.3-0.2v-0.2c0-0.1,0-0.2,0.1-0.3c0-0.1,0-0.2-0.2-0.3v0.1C4.1,23.8,4,23.8,4,23.7
	s0-0.2,0.1-0.3c0.3-0.2,0.5-0.4,0.7-0.6s0.4-0.4,0.6-0.5l0.2-0.1l0,0h0.1c0-0.2,0.3-0.4,0.6-0.7s0.6-0.6,0.9-0.9s0.6-0.6,0.9-0.9
	s0.5-0.5,0.7-0.7l0.3-0.3c0,0,0.1-0.1,0.2-0.3c0,0,0,0,0-0.1c0,0,0,0,0-0.1c0.2-0.3,0.4-0.5,0.5-0.7s0.3-0.4,0.4-0.8
	c0.3-0.5,0.4-0.9,0.3-1.3c-0.1-0.1-0.1-0.2-0.1-0.2l0,0l0,0c0,0,0-0.1,0-0.2l0,0v-0.2c0-0.1,0-0.1-0.1-0.2v-0.1l0,0l-0.1-0.1
	c-0.1-0.1-0.1-0.2-0.1-0.3S10,13.9,10,13.9c0.1,0.2,0,0.1,0,0s-0.1-0.2-0.2-0.2l-0.1-0.1c0,0,0,0,0-0.1c0,0,0,0,0-0.1
	c-0.1,0-0.1,0-0.1-0.1c0,0-0.1,0-0.1-0.1c-0.1-0.1-0.1-0.1-0.2-0.2c0-0.1-0.1-0.1-0.2-0.2H9H8.9v-0.1l-0.1-0.1l-0.1-0.1l-0.1-0.1
	l0,0c-0.1,0.1-0.2,0.1-0.2,0c-0.1,0-0.1,0-0.1-0.1l0,0H8.2c0-0.1,0-0.2-0.1-0.3c0-0.1,0-0.1,0-0.2c0,0,0-0.1,0-0.2l0,0l0,0
	c0-0.1,0.1-0.2,0.2-0.3h0.1c-0.1-0.1-0.1-0.1,0-0.2c0-0.1,0-0.1-0.1-0.3l0,0v0.1l0,0l0,0l0,0v-0.1v-0.1v-0.1v0.1v-0.1l0,0v-0.1H8.2
	l0,0c-0.2,0.1-0.3,0-0.3-0.1s0-0.1,0-0.3c0.2-0.3,0.4-0.6,0.6-0.8C8.6,9.3,8.8,9.1,9,9l0.1-0.1l0,0l0,0c0.2-0.2,0.5-0.5,0.7-0.7
	s0.4-0.4,0.7-0.6c0.1-0.1,0.3-0.2,0.4-0.3C11.1,7.1,11.2,7,11.3,7l0.1-0.1c0.1,0,0.1,0,0.1-0.1c0,0,0,0,0-0.1l0.2-0.1l0.1-0.1
	c0-0.1,0-0.1,0.1-0.1c0,0,0,0,0.1-0.1C12,6.1,12,6,12,6V5.9V5.8c0.1-0.1,0.2-0.2,0.3-0.3c0.1-0.1,0.1-0.2,0.2-0.4
	c0.1-0.3,0.1-0.5,0-0.7c0-0.1,0-0.1,0-0.2s0-0.1,0-0.2c-0.1-0.1-0.1-0.2,0-0.3c0,0,0,0,0-0.1l0,0l0,0l0,0c-0.3-0.3-0.7-0.5-1.2-0.6
	h-0.1c0,0,0,0-0.1,0H11c-0.1,0-0.2,0-0.3,0s-0.2,0-0.4,0H9.6C9.5,3,9.4,3.3,9.3,3.4C9.2,3.6,9.1,3.8,8.9,4c0,0.1,0,0.1,0,0.2
	s-0.1,0.2,0,0.2C8.7,4.6,8.6,4.8,8.6,5C8.5,5.2,8.4,5.4,8.2,5.6C8,5.9,7.9,6.1,7.8,6.4C7.6,6.6,7.5,6.9,7.5,7.1
	c0,0.1-0.1,0.2-0.1,0.3c0,0.1-0.1,0.2-0.1,0.3c0,0.2,0,0.3-0.1,0.4c0,0.1-0.1,0.2-0.2,0.4v0.1c0,0,0,0.1-0.1,0.1v0.2
	c0,0.2-0.1,0.5-0.2,0.7S6.5,10,6.3,10.3c-0.1,0.2-0.1,0.3-0.1,0.4v0.1c0.1,0.1,0.1,0.2,0,0.4c0,0.1,0,0.2-0.1,0.2
	c0,0.1-0.1,0.2-0.1,0.2l0,0c0,0.1-0.1,0.2-0.1,0.3s0,0.1,0,0.2v0.1c0,0.1,0,0.1,0,0.2c0,0,0,0.1-0.1,0.1l0,0c0,0.2,0,0.3-0.1,0.5
	s-0.2,0.3-0.2,0.5c-0.1,0.1-0.1,0.3-0.2,0.4c0,0.2-0.1,0.3-0.2,0.5S5,14.8,5,14.9c0,0.2-0.1,0.4-0.1,0.6c0,0.1,0,0.1,0,0.2
	s0,0.2-0.1,0.2c0,0.1,0,0.1-0.1,0.2c-0.1,0.4-0.2,0.8-0.3,1.3c-0.1,0.4-0.2,0.9-0.4,1.3c-0.1,0.2-0.1,0.3-0.2,0.5
	c-0.1,0.1-0.1,0.3,0,0.6c-0.1,0.1-0.1,0.3-0.1,0.5l-0.3,0.4v0.1v0.1c0,0.1,0,0.3,0,0.4s-0.1,0.2-0.2,0.3c0,0.1,0,0.2,0,0.3V22
	c0,0,0,0,0,0.1c-0.1,0-0.1,0.1-0.1,0.1c0,0.2-0.1,0.5-0.1,0.6S2.7,23,2.7,23.2c0,0.1,0,0.1-0.1,0.1c0,0.2,0,0.5,0,0.7s0,0.4-0.1,0.6
	c0,0.1,0,0.1,0,0.2s0,0.1,0,0.2v0.4c0,0.3,0,0.4-0.1,0.5s-0.2,0-0.3-0.2C2,25.6,2,25.3,2,25c0-0.1,0-0.1,0-0.2l0,0
	c0.2,0.3,0.2,0.6,0.1,0.8c0.1,0,0.1-0.1,0.2-0.1c0,0,0,0,0-0.1c0,0,0,0,0-0.1c-0.1-0.1-0.1-0.2,0-0.3v-0.6c-0.1-0.1-0.1-0.3-0.1-0.5
	s0-0.3,0-0.6v-0.1c0-0.1,0-0.2,0-0.2v-0.2c0-0.1-0.1-0.1-0.3-0.2s-0.3-0.1-0.4-0.1s-0.1,0-0.1,0s0,0.1,0,0.2V23c0,0.1,0,0.2-0.1,0.2
	s-0.1,0-0.1,0c0,0.3,0,0.5-0.1,0.6c0,0.1-0.1,0.1-0.3,0.1c0-0.1,0-0.2,0-0.3c-0.1-0.1-0.1-0.2-0.2-0.2c0-0.1-0.1-0.1-0.2-0.1l0,0
	l0,0c-0.1,0.1-0.2,0.1-0.2,0s0-0.2,0-0.4C0,22.2,0,21.6,0.2,21c0,0,0-0.1,0-0.2c0,0,0,0,0-0.1c0.1-0.7,0.3-1.4,0.4-2.1
	s0.3-1.4,0.6-2.1c0-0.3,0.1-0.5,0.2-0.8c0-0.1,0-0.2,0-0.2c0.1-0.4,0.3-0.8,0.4-1.2s0.3-0.8,0.4-1.3c0.3-0.7,0.6-1.4,0.9-2.2
	c0.3-0.7,0.6-1.5,0.8-2.3l0,0H3.8C4,8.4,4,8.3,4,8.1C4,8,4,7.9,4,7.9s0-0.2,0.1-0.2l0,0c0.1-0.1,0.1-0.2,0.1-0.3
	C4.4,7,4.5,6.6,4.6,6.2C4.8,5.7,4.9,5.3,5,4.9h0.1c0.1,0,0.3-0.1,0.4-0.2c0-0.1,0-0.1,0-0.2s0-0.1,0-0.2c0.1-0.2,0.3-0.4,0.4-0.6
	C6,3.5,6.1,3.2,6.2,3H6.1c0,0,0,0-0.1,0c0.1,0.1,0,0.1-0.1,0.1s-0.1,0-0.2,0.1c-0.2,0.1-0.3,0.1-0.4,0H5.1C5,3.3,5,3.4,5.1,3.4
	s0.1,0,0,0c-0.2,0-0.2,0.1-0.2,0.1H4.8H4.7C4.5,3.7,4.3,3.7,4.1,3.8C3.9,3.8,3.7,3.9,3.5,4H3.4C3.2,4,3.1,4.1,2.9,4.2
	S2.5,4.3,2.3,4.3C2.1,4.4,2,4.5,2,4.5c-0.1,0-0.1,0.1-0.2,0.1c0,0-0.1,0-0.2,0.1C1.4,4.8,1.2,4.9,1.1,4.8C1,4.7,1,4.6,1.2,4.4
	c0.1-0.1,0.1-0.2,0.3-0.2c0.1,0,0.2-0.1,0.3-0.2v0h0.1C1.7,4.3,1.5,4.4,1.2,4.4c0.1,0.1,0.2,0.1,0.3,0.1V4.4c0,0,0.1-0.1,0.2-0.1
	C1.9,4.2,2,4.2,2,4.1C2.1,4.1,2.2,4,2.2,4c0.1-0.1,0.3-0.2,0.4-0.3S2.8,3.6,3,3.5l0,0l0,0c0,0,0,0,0.1,0c0,0,0,0,0.1-0.1l0.2-0.1
	l0.1-0.1c0,0,0-0.1,0-0.2c0-0.1,0-0.1,0-0.1s-0.1,0-0.2,0c0,0-0.1,0.1-0.2,0.1c0,0.1-0.1,0.1-0.2,0V2.9C2.7,3.1,2.6,3.1,2.5,3.1
	S2.4,3,2.3,2.9c0.1-0.1,0.2-0.1,0.2-0.2c0.1-0.1,0.1-0.2,0.2-0.2c0-0.1,0-0.2,0-0.3l0,0l0,0C2.4,2.2,2.3,2.1,2.4,2
	c0.1,0,0.2-0.1,0.3-0.2c0.5-0.3,1.1-0.5,1.7-0.6c0,0,0.1,0,0.2,0l0,0c0.3-0.1,0.6-0.2,1-0.3c0.3-0.1,0.6-0.2,0.9-0.3
	c0-0.1,0.1-0.1,0.2-0.2C6.8,0.3,7,0.3,7,0.3c0.2-0.1,0.3,0,0.4,0s0.2,0,0.3,0C8,0.2,8.2,0.2,8.4,0.1v0.1l0,0c0.1,0,0.2,0,0.2-0.1
	h0.1C9,0.1,9.2,0,9.4,0s0.4,0,0.8,0.1h0.3c0.1,0,0.2,0,0.3,0c0.1,0.1,0.2,0.1,0.3,0.1c0.1,0.1,0.2,0.1,0.3,0.1l0.4,0.1
	c0.1-0.1,0.1-0.1,0.1-0.1c0.1-0.1,0.2-0.1,0.4,0c0,0,0,0,0.1,0c0,0,0,0,0.1,0c0,0,0,0,0.1,0c0,0,0,0,0.1,0L13,0.4
	c0.1,0.1,0.1,0.1,0.2,0.1C13,0.7,13,0.8,13.1,0.8s0.1,0.1,0.2,0.1L13.4,1h0.1c0.1,0,0.1,0.1,0.1,0.1l0.1,0.1l0,0l0,0c0,0,0,0,0.1,0
	c0,0,0,0,0.1,0H14c0,0,0.1,0,0.1,0.1l0.1,0.1l0,0l0,0l0,0c0,0.1,0.1,0.2,0.2,0.3c0,0.1,0.1,0.3,0.2,0.4C14.8,2.8,14.9,3,15,3.3
	C15.1,3.5,15.1,3.7,15.1,4L15.1,4z M2.7,1.8L2.7,1.8L2.7,1.8L2.7,1.8z M4.4,14L4.4,14L4.4,14z"/>
<path class="st0" d="M17.2,18.7c0,0.1,0,0.2-0.1,0.2c-0.1,0.2-0.2,0.4-0.2,0.4h-0.1c0,0,0-0.1,0,0s-0.1,0.2-0.2,0.4
	c0,0.1,0,0.1,0,0.1v-0.1v-0.1c0,0,0,0,0,0.1s-0.1,0.2-0.1,0.3c0,0.1,0,0.2,0,0.3c-0.1,0.1-0.1,0.2-0.1,0.3s-0.1,0.2-0.1,0.2v0.1
	c0,0,0,0,0,0.1v0.1c0,0.1,0,0.3,0,0.4s-0.1,0.2-0.1,0.4c0,0.1,0,0.1,0,0.2s0,0.1,0,0.2v0.1c0,0,0,0,0,0.1v0.1c0,0,0,0,0,0.1
	c0,0.3,0,0.5-0.1,0.8C16,23.7,16,24,15.9,24.2c0,0,0,0.1-0.1,0.1c0,0.2-0.1,0.4-0.1,0.4s-0.1,0.1-0.2,0.4v0.4c0,0.1,0,0.3,0,0.4
	c0,0.4-0.1,0.6-0.2,0.7c-0.1,0.1-0.3,0-0.4-0.2c-0.1-0.1-0.1-0.3,0-0.4c0-0.1,0-0.2,0-0.4c0-0.1,0-0.2,0-0.2H15
	c0.1,0.1,0.2,0.3,0.2,0.5s-0.1,0.3-0.1,0.5c0.1-0.1,0.2-0.1,0.2-0.2L15.2,26c0-0.1,0-0.1,0-0.2c0,0,0-0.1,0-0.2
	c-0.1-0.1-0.1-0.3-0.1-0.4s0-0.2,0-0.4c0-0.2,0-0.4,0-0.6s0-0.4,0-0.6v-0.1c0,0.1,0,0.2,0.1,0.4c-0.1,0.1-0.1,0.2,0,0.3v-0.3
	c0-0.1,0-0.2,0-0.2c0-0.1,0-0.1,0-0.2s0-0.1-0.1-0.2s-0.1,0-0.1,0c0,0.1,0,0.1,0,0.2c0,0.3,0,0.5-0.1,0.6h-0.1c0,0.3,0,0.4-0.1,0.2
	c-0.1-0.2-0.2-0.3-0.4-0.3c-0.1,0-0.1-0.1-0.1-0.3c-0.1-0.1-0.1-0.1-0.1,0.1c0,0.1-0.1,0.2-0.2,0.3V24c-0.1,0.1-0.2,0.2-0.2,0
	c0-0.1-0.1-0.2-0.1-0.4c0-0.4,0-0.8,0-1.2s0.1-0.8,0.2-1.2V21c0,0,0,0,0-0.1c0,0,0,0,0-0.1c0.1-0.4,0.1-0.6,0.1-0.7l0,0l0,0
	c0,0,0.1-0.2,0.2-0.7c0.1-0.1,0.1-0.3,0.1-0.4s0-0.3,0-0.4s0-0.2,0-0.3c0.2-0.5,0.4-1,0.6-1.5c0.2-0.5,0.4-1,0.5-1.5
	c0.3-0.9,0.7-1.7,1-2.6c0.3-0.9,0.6-1.7,0.9-2.6l0,0l0,0C17,10,16.9,9.8,17,9.7c0-0.2,0.1-0.3,0.2-0.5c0,0,0-0.1,0.1-0.1
	c0.1-0.2,0.1-0.4,0.1-0.6V8.4c0.6-0.8,1-1.6,1-2.6h0.1c0.1,0,0.1,0,0.2-0.1c0.1,0,0.1-0.1,0.2-0.2c0-0.1,0-0.1,0-0.2
	c0,0,0-0.1,0.1-0.2c0.2-0.3,0.4-0.6,0.6-1c0.2-0.3,0.3-0.6,0.5-1c-0.1,0-0.1,0.1-0.2,0.1c-0.1,0-0.1,0.1-0.2,0.1
	c-0.1,0-0.1,0.1-0.1,0.1s-0.1,0-0.1,0.1l-0.2,0.2L19.1,4C19,4.1,19,4.1,18.9,4.2c0,0-0.1,0.1-0.2,0.2s-0.1,0.1-0.2,0.1
	c-0.1,0-0.1,0-0.2,0c-0.2,0-0.3-0.1-0.2-0.3c0-0.1,0.1-0.2,0.2-0.3c0.1-0.1,0.1-0.1,0.1-0.2c0,0,0-0.1,0.1-0.2l-0.1,0h0.1
	c0,0.1-0.1,0.3-0.2,0.4c0,0.1,0,0.1,0,0.1l-0.1,0.1h-0.1c0,0,0,0-0.1,0c-0.1,0.1-0.1,0.1-0.1,0.1c0.1,0,0.2,0,0.4,0
	c0-0.1,0-0.1,0-0.1c0-0.1,0-0.1,0.1-0.2c0,0,0,0,0.1-0.1c0-0.1,0.1-0.1,0.2-0.3c0.1-0.1,0.2-0.2,0.4-0.3C19.2,3.1,19.2,3,19.3,3
	c0.1,0,0.1,0,0.1-0.1c0,0,0.1,0,0.1-0.1l0.2-0.2L20,2.5l0.1-0.1l0,0c0.1,0,0.1,0,0,0c0,0,0,0.1,0,0l0,0c0,0,0-0.1,0.1-0.1
	c0,0,0-0.1,0.1-0.1c-0.1,0-0.1,0.1-0.1,0.1l-0.1,0.1c-0.1,0-0.1,0.1-0.2,0.1c0,0-0.1,0-0.2,0h-0.1c0,0.1-0.1,0.2-0.2,0.3
	c-0.1,0-0.1,0.1-0.2,0.1C19.1,3,18.9,3,18.8,3l0,0c-0.1,0,0-0.1,0-0.2c0-0.1,0-0.2,0-0.3s-0.1-0.1-0.2-0.1v0.1
	c-0.2,0.1-0.4,0.1-0.4,0c0,0,0-0.1,0-0.2c0,0,0.1,0,0.1-0.1c0,0,0.1,0,0.1-0.1c0.1-0.2,0.3-0.3,0.5-0.5c0.2-0.1,0.4-0.3,0.6-0.4
	c0.5-0.3,1.1-0.5,1.7-0.6c0.1,0,0.1,0,0.1,0h0.1V0.4c0.1-0.1,0.4-0.1,0.8-0.2c0.4-0.1,0.8,0,1.2,0h0.1c0.1,0,0.1,0,0.1,0h0.1
	c0.4,0.1,0.8,0.1,1.2,0.2s0.7,0.2,1,0.4c0,0,0.1,0.1,0.2,0.1C26.2,1,26.3,1,26.3,1.1l0.1,0.1h0.1l0,0l0,0l0.1,0.1l0.3,0.3
	C27.2,1.9,27.2,2,27.3,2c0,0,0.1,0.1,0.2,0.2c0,0.1,0,0.2,0.2,0.3L28,2.8l0.1,0.1L28.2,3l0.2,0.4c0.1,0.2,0.2,0.3,0.4,0.4
	C28.9,3.9,28.9,3.9,29,4c0.1,0.1,0.1,0.2,0.2,0.2c0.1,0.2,0.2,0.3,0.2,0.4c0.1,0.3,0.3,0.6,0.4,0.9s0.2,0.6,0.4,0.9
	c0.1,0.3,0.2,0.7,0.2,1s0,0.7,0,1c0,0.2,0,0.5,0,0.7s-0.1,0.5-0.2,0.7c-0.1,0.5-0.4,1-0.6,1.4c-0.5,0.9-1.1,1.7-1.9,2.4
	c-0.2,0.3-0.6,0.6-1.1,1c-0.4,0.3-0.7,0.6-1.2,0.8c-0.4,0.3-0.8,0.5-1.1,0.7c-0.1,0-0.1,0.1-0.2,0.1c0,0-0.1,0.1-0.2,0.1
	c-0.1,0.1-0.3,0.1-0.3,0l0,0c-0.1,0.1-0.1,0.1-0.2,0.2s-0.2,0.1-0.2,0.2c-0.2,0.1-0.4,0.1-0.6,0.2c-0.2,0.1-0.4,0.2-0.6,0.3
	c-0.1,0.1-0.2,0.1-0.2,0.1l-0.2,0.1c-0.2,0-0.5,0.1-0.7,0.2s-0.4,0.1-0.7,0.2l0,0c-0.1,0.1-0.1,0.1-0.2,0.2c-0.1,0-0.2,0.1-0.3,0.1
	c-0.1,0.1-0.2,0.1-0.3,0.1s-0.2,0-0.3,0.1c-0.2,0-0.4,0.1-0.5,0.2c-0.1,0-0.1,0-0.2,0h-0.2c-0.1-0.1-0.2-0.1-0.2-0.2
	c0.1-0.1,0.2-0.3,0.4-0.4c0.1-0.1,0.3-0.1,0.4-0.2c0.1,0,0.2-0.1,0.4-0.2c0.1-0.1,0.2-0.2,0.4-0.4c0.1-0.1,0.2-0.2,0.1-0.4
	c-0.2,0-0.3,0-0.5,0c-0.1,0-0.3,0-0.5,0.1c-0.4,0-0.5-0.1-0.1-0.4c0.2-0.1,0.4-0.2,0.6-0.3s0.4-0.2,0.7-0.2l0.7-0.3l0.2-0.1l0.3-0.1
	c0.1-0.1,0.3-0.1,0.4-0.2c0.1,0,0.2-0.1,0.3-0.2c0-0.1,0.1-0.1,0.2-0.2c0.1-0.1,0.1-0.1,0.1-0.1c0.1-0.1,0.2-0.2,0.3-0.2
	c0.1-0.1,0.2-0.1,0.4-0.2l0.2-0.1h0.1h0.1c0.1-0.1,0.2-0.2,0.3-0.2c0.1-0.1,0.2-0.1,0.4-0.2c0.2-0.2,0.5-0.3,0.8-0.5
	s0.6-0.3,0.9-0.6c0.1-0.1,0.2-0.1,0.2-0.2c0.1,0,0.1-0.1,0.2-0.2v-0.1c0-0.1,0-0.1,0.1-0.2l0.1-0.2c0.1-0.1,0.2-0.1,0.3-0.2
	c0.1-0.1,0.2-0.2,0.3-0.3c0,0,0,0,0.1,0c0,0,0,0,0.1,0c0,0,0.1,0,0.1-0.1c0,0,0.1,0,0.1-0.1l0.1-0.1c0-0.1,0-0.1,0.1-0.2l0.1-0.1
	l0.1-0.2c0,0,0.1,0,0.1-0.1c0,0,0.1,0,0.1-0.1l0,0l0.1-0.3c0-0.1,0-0.1,0-0.1V9.8C28,9.7,28,9.6,28,9.5s0-0.2,0.1-0.3
	c0.2-0.4,0.2-0.7,0.2-1.1c0-0.3,0-0.7-0.2-1.2C28,6.8,28,6.7,28,6.6V6.5v0.3c-0.1-0.1-0.1-0.1-0.1-0.3c-0.1-0.2-0.2-0.5-0.4-0.7
	c-0.1-0.2-0.3-0.5-0.4-0.7c-0.2-0.2-0.4-0.5-0.6-0.7c-0.2-0.2-0.4-0.5-0.6-0.7c-0.1-0.2-0.3-0.4-0.4-0.5c-0.1-0.2-0.3-0.3-0.6-0.5
	l0,0l0,0l0,0l0,0l-0.2-0.1c-0.1,0-0.1,0-0.2-0.1c-0.1,0-0.1,0-0.2-0.1h-0.1c0,0,0,0-0.1,0l0,0H24c-0.1,0-0.1,0-0.2,0h-0.1
	c-0.1,0.2-0.1,0.3-0.2,0.4c-0.1,0.2-0.1,0.3-0.1,0.4c-0.1,0.3-0.3,0.6-0.4,0.9c-0.1,0.3-0.3,0.5-0.6,0.8c-0.1,0.2-0.3,0.6-0.4,1
	c-0.6,0.1-0.8,0.5-0.9,0.9s-0.3,0.8-0.5,1.3l0,0c-0.1,0.1-0.1,0.3-0.2,0.5s-0.1,0.3-0.1,0.5s0,0.4-0.1,0.5S20,9.9,20,10l-0.1,0.3
	v0.1c0,0,0,0,0,0.1c-0.1,0.3-0.1,0.6-0.2,0.8c-0.1,0.2-0.2,0.5-0.3,0.7c-0.1,0.1-0.2,0.3-0.2,0.4v0.1v0.1c0,0.1,0,0.3,0,0.4
	c0,0.1-0.1,0.2-0.1,0.3s-0.1,0.2-0.2,0.3v0.1c0,0,0,0,0,0.1s-0.1,0.2-0.1,0.4c0,0.1,0,0.1,0,0.1v0.1v0.1c0,0.1-0.1,0.1-0.1,0.2
	s-0.1,0.1-0.1,0.2l0,0c0,0.2,0,0.4-0.1,0.6c-0.1,0.2-0.2,0.3-0.3,0.6s-0.2,0.6-0.3,1c-0.1,0.2-0.2,0.5-0.2,0.6
	c0,0.2-0.1,0.4-0.2,0.6c0,0.1,0,0.2,0,0.3S17.2,18.6,17.2,18.7L17.2,18.7z"/>
</svg>
