<?xml version="1.0" encoding="UTF-8"?><svg id="a" xmlns="http://www.w3.org/2000/svg" viewBox="0 0 282.53 94"><defs><style>.b{fill:#ec008c;}</style></defs><path class="b" d="M42.53,11.16c.16,.17,.23,.35,.19,.56-.04,.21-.06,.4-.06,.56,.08,.5,.08,.87,0,1.12l.12,1.12c0,.17,.02,.35,.06,.56,.04,.21,.02,.39-.06,.56,0,.17-.04,.29-.12,.37s-.12,.21-.12,.37c.08,.33,.04,.67-.13,1,0,.17-.04,.29-.12,.37-.08,.08-.13,.17-.13,.25-.5,1.49-1.2,2.86-2.12,4.11-.33,.67-.77,1.27-1.31,1.81-.54,.54-1.06,1.06-1.56,1.56-.25,.17-.46,.31-.62,.44-.17,.13-.42,.27-.75,.44-.17,.17-.33,.33-.5,.5s-.29,.33-.37,.5l-.87,.87c-.25,.17-.46,.33-.62,.5s-.37,.29-.62,.37h-.25c-.08,.08-.17,.12-.25,.12-.17,.25-.37,.42-.62,.5-.25,.08-.46,.21-.62,.37-.08,.08-.15,.17-.19,.25-.04,.08-.1,.17-.19,.25,0,.25-.08,.37-.25,.37l-.25,.13c.08,0,.21,.08,.37,.25,.17,.08,.33,.21,.5,.37,.16,.17,.33,.25,.5,.25,.17,.08,.33,.21,.5,.37,.17,.08,.27,.17,.31,.25,.04,.08,.14,.21,.31,.37,.08,.17,.14,.27,.19,.31,.04,.04,.1,.15,.19,.31l.25,.37,.12,.25c.33,.17,.66,.67,1,1.5,.41,.5,.75,1.16,1,1.99,.16,.42,.25,.81,.25,1.18s.08,.77,.25,1.18v.75c0,.08,.04,.13,.13,.13l.12,.62,.25,.25c.08,.17,.17,.33,.25,.5,.08,.17,.13,.42,.13,.75,.08,.5,.08,1.12,0,1.87-.17,.17-.25,.29-.25,.37,.16-.66,.27-1,.31-1s.06,.13,.06,.37v.93c0,.37,.08,.6,.25,.69-.33,.42-.56,.87-.69,1.37-.13,.5-.27,.96-.44,1.37l-.37,.5-.25,.37-.13,.75c-.17,.25-.29,.52-.37,.81-.08,.29-.21,.56-.37,.81-.17,.17-.19,.37-.06,.62,.12,.25,.06,.5-.19,.75-.08,.17-.21,.33-.37,.5-.17,.25-.42,.5-.75,.75l-.37,.87c-.17,.25-.35,.5-.56,.75-.21,.25-.39,.5-.56,.75-.5,.42-.79,.67-.87,.75,0,.08-.13,.29-.37,.62-.25,.33-.54,.73-.87,1.18-.33,.46-.62,.85-.87,1.18-.25,.33-.42,.54-.5,.62-.17,.17-.29,.29-.37,.37-.08,.08-.17,.21-.25,.37l-.5,.37-.37,.25c-.17,.17-.35,.33-.56,.5-.21,.17-.4,.37-.56,.62-.33,.5-.62,.87-.87,1.12-.58,.33-1,.67-1.25,1-.42,.42-.79,.67-1.12,.75-.08,.08-.21,.13-.37,.13l-.25,.12c-.17,.33-.39,.54-.69,.62-.29,.08-.6,.21-.93,.37-.08,.17-.15,.27-.19,.31-.04,.04-.1,.15-.19,.31,0,.08-.08,.12-.25,.12l-.12,.25c-.33,.33-.87,.58-1.62,.75-.33,.08-.62,.17-.87,.25-.25,.08-.54,.21-.87,.37l-.37-.12c-.5,.33-.98,.6-1.43,.81-.46,.21-.98,.4-1.56,.56l-.87,.37c-.17,.17-.46,.37-.87,.62-.25,.17-.4,.27-.44,.31-.04,.04-.15-.02-.31-.19-.5-.33-.54-.7-.12-1.12,.08-.25,.25-.41,.5-.5,.33-.17,.58-.33,.75-.5,.08,0,.02-.02-.19-.06-.21-.04-.27-.1-.19-.19l.25,.25c-.08,.17-.04,.31,.12,.44,.17,.13,.17,.27,0,.44-.08,0-.15,.02-.19,.06-.04,.04-.15,.06-.31,.06h-.5c.08,.25,.25,.37,.5,.37l.25-.25c.17-.16,.17-.25,0-.25s-.17-.04,0-.12c.25-.25,.62-.5,1.12-.75,.17-.17,.33-.31,.5-.44,.17-.12,.33-.27,.5-.44,.66-.33,1.04-.54,1.12-.62,.08,0,.17-.04,.25-.13v-.12c0-.08-.02-.06-.06,.06-.04,.12,.02,.15,.19,.06,.08-.08,.21-.12,.37-.12s.25-.04,.25-.13c0-.16,.06-.23,.19-.19,.12,.04,.1-.02-.06-.19-.08-.25-.19-.33-.31-.25-.12,.08-.27,.17-.44,.25l-.37,.37c-.17,.17-.33,.25-.5,.25l-.25-.25c-.33,.5-.62,.79-.87,.87-.17,0-.46-.21-.87-.62v-.5c.08-.33,.14-.62,.19-.87,.04-.25-.1-.5-.44-.75l-.12,.25c-.42-.17-.6-.37-.56-.62,.04-.25,.14-.5,.31-.75,.75-.5,1.37-1.02,1.87-1.56,.5-.54,1.08-1.02,1.74-1.43l.5-.25h.12l.25-.13c.58-.58,1.31-1.26,2.18-2.06,.87-.79,1.74-1.6,2.62-2.43,.87-.83,1.72-1.64,2.55-2.43,.83-.79,1.49-1.47,1.99-2.06l.75-.75c0-.08,.17-.37,.5-.87,.08-.08,.12-.14,.12-.19,0-.04,.04-.1,.13-.19,.66-.83,1.16-1.49,1.49-1.99,.33-.5,.75-1.2,1.25-2.12,.83-1.33,1.08-2.53,.75-3.61-.17-.33-.27-.52-.31-.56-.04-.04-.04-.02,0,.06,.04,.08,.08,.1,.12,.06s.06-.23,.06-.56h-.12v-.5c0-.17-.08-.33-.25-.5l.12-.25v-.13l-.25-.25c-.17-.33-.29-.6-.37-.81-.08-.21-.21-.44-.37-.69-.17-.17-.31-.37-.44-.62-.12-.25-.27-.46-.44-.62l-.37-.37c0-.08-.02-.14-.06-.19-.04-.04-.02-.14,.06-.31-.17-.08-.27-.14-.31-.19-.04-.04-.15-.1-.31-.19-.17-.17-.31-.35-.44-.56-.13-.21-.27-.39-.44-.56l-.37-.13-.25-.12c-.08-.08-.12-.21-.12-.37-.08-.08-.21-.17-.37-.25l-.25-.25-.25-.25v.12c-.33,.17-.5,.17-.5,0-.17,0-.29-.12-.37-.37-.08,0-.12-.04-.12-.13-.08,0-.17,.04-.25,.13,0-.33-.08-.58-.25-.75,0-.17-.02-.31-.06-.44-.04-.13-.06-.27-.06-.44l.12-.13h0c.08-.41,.29-.66,.62-.75h.37c-.25-.16-.29-.33-.13-.5,0-.17-.08-.41-.25-.75l-.12,.12c0,.08-.04,.17-.13,.25l.13,.13v.12h-.13c.08-.08,.08-.17,0-.25v-.37l.13-.25-.13,.25v-.25h.13v-.25c-.08-.08-.21-.12-.37-.12l-.12,.12c-.5,.17-.75,.08-.75-.25-.08-.17-.04-.41,.13-.75,.58-.91,1.12-1.7,1.62-2.37,.5-.66,1.08-1.2,1.74-1.62l.37-.37c.08,0,.13-.02,.13-.06s.04-.06,.12-.06c.66-.66,1.29-1.31,1.87-1.93,.58-.62,1.2-1.18,1.87-1.68,.41-.25,.79-.54,1.12-.87s.66-.58,1-.75l.25-.37c.17-.08,.25-.14,.25-.19,0-.04,.04-.1,.12-.19l.5-.37,.25-.37c.08-.16,.14-.27,.19-.31,.04-.04,.1-.14,.19-.31,.17-.33,.25-.54,.25-.62,.08-.08,.1-.17,.06-.25-.04-.08-.02-.21,.06-.37,.41-.25,.7-.54,.87-.87,.17-.33,.33-.7,.5-1.12,.16-.83,.21-1.49,.12-1.99,0-.17,.02-.33,.06-.5,.04-.17,.02-.33-.06-.5-.17-.33-.21-.58-.12-.75-.08,0-.13-.08-.13-.25h-.12v-.13l-.13-.12c-.83-.75-1.91-1.33-3.24-1.74-.08,0-.15-.02-.19-.06-.04-.04-.1-.06-.19-.06h-.37c-.17-.08-.46-.13-.87-.13-.25-.08-.58-.12-1-.12h-2.24c-.25,.67-.52,1.27-.81,1.81-.29,.54-.64,1.06-1.06,1.56,.08,.17,.04,.37-.13,.62-.17,.25-.21,.46-.12,.62-.25,.58-.48,1.14-.69,1.68-.21,.54-.52,1.1-.93,1.68-.58,.67-1.04,1.37-1.37,2.12-.33,.75-.58,1.45-.75,2.12-.08,.33-.17,.6-.25,.81-.08,.21-.17,.48-.25,.81,.08,.5,.02,.89-.19,1.18-.21,.29-.4,.6-.56,.93-.08,.08-.13,.17-.13,.25s-.08,.17-.25,.25v.5c0,.67-.17,1.29-.5,1.87-.33,.58-.67,1.2-1,1.87-.17,.5-.29,.83-.37,1,.08,.08,.13,.21,.13,.37,.17,.17,.17,.5,0,1,0,.25-.06,.48-.19,.69-.13,.21-.23,.44-.31,.69l-.25,.25c-.08,.25-.21,.54-.37,.87,0,.25-.04,.42-.13,.5,.08,.08,.04,.17-.12,.25-.08,.17-.13,.31-.13,.44s-.08,.23-.25,.31v.12c0,.5-.12,.98-.37,1.43-.25,.46-.46,.89-.62,1.31-.17,.33-.31,.73-.44,1.18-.13,.46-.27,.89-.44,1.31-.17,.5-.29,1-.37,1.49-.08,.5-.17,1.04-.25,1.62-.08,.17-.12,.35-.12,.56s-.08,.44-.25,.69c0,.17-.13,.37-.37,.62-.33,1.16-.64,2.37-.93,3.61-.29,1.25-.64,2.45-1.06,3.61-.17,.5-.33,.96-.5,1.37-.17,.42-.21,.96-.12,1.62-.25,.42-.33,.91-.25,1.5l-.75,1.12c0,.08-.04,.17-.12,.25s-.13,.17-.13,.25c.08,.42,.06,.75-.06,1-.13,.25-.27,.5-.44,.75-.08,.25-.04,.54,.12,.87,0,.08-.02,.15-.06,.19-.04,.04-.06,.11-.06,.19-.17,.08-.25,.17-.25,.25-.08,.67-.17,1.27-.25,1.81-.08,.54-.21,1.1-.37,1.68,0,.17-.08,.25-.25,.25,0,.67-.02,1.31-.06,1.93-.04,.62-.11,1.23-.19,1.81,0,.17-.04,.35-.13,.56-.08,.21-.12,.4-.12,.56v1c.08,.75-.04,1.25-.37,1.49-.33,.17-.62,0-.87-.5-.17-.41-.25-1.04-.25-1.87,.08-.25,.08-.41,0-.5,0-.08,.04-.13,.13-.13,.58,.83,.66,1.62,.25,2.37,.16-.08,.33-.21,.5-.37,0-.08-.02-.14-.06-.19-.04-.04-.06-.1-.06-.19-.17-.25-.17-.54,0-.87v-1.74c-.17-.41-.23-.85-.19-1.31,.04-.46,.02-.97-.06-1.56v-.25c0-.25,.04-.46,.12-.62v-.62c-.08-.17-.39-.37-.93-.62-.54-.25-.89-.37-1.06-.37-.17-.08-.25-.06-.25,.06s-.04,.27-.12,.44v.75c0,.25-.08,.46-.25,.62-.17,0-.25-.04-.25-.13,0,.83-.06,1.37-.19,1.62-.13,.25-.4,.33-.81,.25-.08-.17-.12-.46-.12-.87-.17-.25-.31-.48-.44-.69-.13-.21-.31-.31-.56-.31,0,.08-.02,.13-.06,.13s-.06,.04-.06,.12c-.42,.25-.64,.25-.69,0-.04-.25-.06-.58-.06-1-.17-1.91,.04-3.74,.62-5.48,.08-.08,.13-.29,.13-.62,.08,0,.12-.08,.12-.25,.41-1.99,.83-3.96,1.25-5.92,.41-1.95,.95-3.88,1.62-5.79,0-.75,.17-1.49,.5-2.24,0-.33,.04-.54,.12-.62,.41-1.16,.83-2.32,1.25-3.49,.41-1.16,.83-2.37,1.25-3.61,.91-1.99,1.76-4.03,2.55-6.1,.79-2.08,1.56-4.19,2.3-6.35l.12-.12-.25-.13c-.33-.25-.5-.58-.5-1,.08-.25,.12-.5,.12-.75s.08-.46,.25-.62l.12-.13c.25-.25,.37-.54,.37-.87,.5-1.16,.89-2.28,1.18-3.36,.29-1.08,.6-2.2,.93-3.36,.08-.08,.16-.12,.25-.12,.41,0,.75-.21,1-.62,.08-.17,.13-.31,.13-.44s.04-.27,.12-.44c.41-.58,.79-1.18,1.12-1.81,.33-.62,.62-1.31,.87-2.06-.08,0-.15,.04-.19,.13-.04,.08-.1,.12-.19,.12-.17,.08-.35,.15-.56,.19-.21,.04-.39,.11-.56,.19-.5,.17-.87,.21-1.12,.12h-.5c-.33,.25-.4,.4-.19,.44,.21,.04,.19,.06-.06,.06-.33,.17-.5,.29-.5,.37-.08,.08-.21,.13-.37,.13h-.25c-.5,.25-1.04,.44-1.62,.56-.58,.13-1.12,.27-1.62,.44h-.37c-.42,.25-.89,.48-1.43,.69-.54,.21-1.1,.35-1.68,.44-.42,.17-.67,.37-.75,.62-.17,.08-.31,.15-.44,.19-.12,.04-.27,.1-.44,.19-.75,.42-1.29,.5-1.62,.25-.25-.25-.21-.58,.13-1,.17-.25,.41-.44,.75-.56,.33-.13,.62-.27,.87-.44l.25-.25c.08,0,.17,.04,.25,.12-.5,.75-1.16,1.12-1.99,1.12,.25,.25,.5,.37,.75,.37-.08-.08-.04-.21,.13-.37,.08-.08,.29-.21,.62-.37,.33-.17,.6-.29,.81-.37,.21-.08,.44-.21,.69-.37,.41-.41,.79-.7,1.12-.87,.33-.17,.7-.33,1.12-.5v-.12l.13-.13c.08-.08,.14-.12,.19-.12s.14-.08,.31-.25l.5-.25c.08-.08,.19-.19,.31-.31,.13-.12,.1-.27-.06-.44,.08-.16,.04-.23-.13-.19-.17,.04-.33,.06-.5,.06-.17,.08-.35,.19-.56,.31-.21,.12-.44,.15-.69,.06v-.37c-.5,.42-.85,.62-1.06,.62s-.44-.21-.69-.62c.25-.25,.46-.41,.62-.5,.16-.25,.31-.48,.44-.69,.12-.21,.1-.48-.06-.81-.08,0-.13,.02-.13,.06,0,.04-.04,.06-.12,.06-.42-.17-.52-.35-.31-.56s.44-.39,.69-.56c1.41-.91,3.03-1.49,4.86-1.74,.08-.08,.25-.13,.5-.13-.08-.08-.04-.12,.12-.12,.91-.25,1.81-.52,2.68-.81,.87-.29,1.72-.56,2.55-.81,0-.17,.16-.33,.5-.5,.5-.17,.87-.25,1.12-.25,.5-.17,.91-.12,1.25,.12,.17-.08,.46-.12,.87-.12,.66-.17,1.2-.33,1.62-.5v.25h.13c.25,0,.46-.08,.62-.25h.25c.75-.17,1.37-.27,1.87-.31,.5-.04,1.25,.02,2.24,.19h.81c.29,0,.56,.04,.81,.12,.25,.25,.54,.37,.87,.37,.33,.17,.62,.29,.87,.37l1,.25c.17-.17,.29-.25,.37-.25,.25-.17,.58-.17,1,0,.08,0,.14,.02,.19,.06,.04,.04,.1,.06,.19,.06,.08,.08,.14,.13,.19,.13s.1,.04,.19,.12l.75,.25c.17,.17,.33,.25,.5,.25,.17,.17,.31,.31,.44,.44s.27,.23,.44,.31l.37,.37,.25,.13c.16,.08,.29,.17,.37,.25,.08,.08,.21,.21,.37,.37v.12h.13c.08,.08,.14,.13,.19,.13,.04,0,.1,.04,.19,.12,.08,.08,.17,.13,.25,.13s.21,.08,.37,.25l.37,.37c0,.08,.02,.13,.06,.13,.04,0,.06,.04,.06,.12l.13,.12c.08,.25,.29,.54,.62,.87,.08,.42,.25,.79,.5,1.12,.17,.67,.37,1.31,.62,1.93,.25,.62,.37,1.27,.37,1.93ZM7.65,5.06h-.13l.13-.13v.13Zm4.73,34.38l-.12-.12,.12,.12Z"/><path class="b" d="M46.89,25.23c-.25-.08-.46,.06-.62,.44-.17,.37-.25,.71-.25,1s.06,.42,.19,.37c.12-.04,.39-.56,.81-1.56,.08-.66,.23-1.29,.44-1.87,.21-.58,.48-1.16,.81-1.74,.25-.91,.44-1.66,.56-2.24,.13-.58,.29-1.16,.5-1.74,.21-.58,.39-1.04,.56-1.37,0-.16,.08-.25,.25-.25,.25-1.5,.75-2.87,1.49-4.11,.17-.17,.25-.37,.25-.62s.08-.46,.25-.62l1.25-.12c-.17,.42-.27,.79-.31,1.12-.04,.33-.1,.67-.19,1,0,.58-.06,1.12-.19,1.62-.13,.5-.27,1.04-.44,1.62v.25l.13,.12c0,.17,.02,.29,.06,.37,.04,.08,.02,.21-.06,.37,0,.17-.04,.29-.13,.37s-.17,.21-.25,.37v.12l.25,.13c0-.08,.13-.21,.37-.37,.08,0,.17,.04,.25,.12,.25-1.58,.83-2.37,1.74-2.37,.17,.17,.23,.31,.19,.44-.04,.13-.02,.27,.06,.44,.25,.33,.44,.64,.56,.93,.12,.29,.39,.4,.81,.31,.08,0,.17-.04,.25-.12v-.13c.41-.41,.66-.46,.75-.12,.08,.33,.08,.71,0,1.12-.25,1.99-.71,3.86-1.37,5.6-.17,.33-.25,.58-.25,.75l-.13,.12c-.25,.91-.42,1.41-.5,1.5-.08,.08-.13,0-.13-.25v-.87c0-.33-.04-.46-.12-.37l-.25,.75-.13,.37c-.08,.91-.31,1.68-.69,2.3-.37,.62-.64,1.27-.81,1.93l-.25,1.25v.37c.17,.42,.12,.83-.13,1.25l-.62,1.62-.37,.37c.08,.25,0,.58-.25,1,0,.08-.04,.17-.13,.25-.08,.08-.08,.17,0,.25,0,.08-.04,.17-.12,.25l-.13,1c-.17,.42-.21,.62-.12,.62v.13c-.58,1.08-.96,2.08-1.12,2.99l-.62,3.61c.08,.25,.12,.52,.12,.81s-.08,.56-.25,.81c0,.25-.04,.46-.12,.62-.33,.67-.54,1-.62,1s-.15-.04-.19-.13c-.04-.08-.08-.1-.12-.06-.04,.04-.19,.4-.44,1.06-.17,.67-.37,1.25-.62,1.74-.25,.5-.33,1.08-.25,1.74l-.25,1.74-.62,1.12-.25,.25c0,.17-.04,.25-.12,.25,0,.5-.08,.89-.25,1.18-.17,.29-.33,.6-.5,.93v1.37c-.08,.08-.12,.17-.12,.25,0,.75-.23,1.74-.69,2.99-.46,1.25-.77,2.2-.93,2.86l-.37,.25c0,.42,.02,.56,.06,.44,.04-.12,.08-.29,.13-.5,.04-.21,.06-.39,.06-.56s-.04-.08-.12,.25l-.75-.37c0-.17-.02-.21-.06-.12-.04,.08-.1,.19-.19,.31-.08,.13-.17,.21-.25,.25-.08,.04-.12-.02-.12-.19v-1.12c0-.25-.08-.46-.25-.62-.08,0-.12,.25-.12,.75-.08,.33-.13,.62-.13,.87s-.08,.46-.25,.62h-.25c-.5,.25-.7,.29-.62,.12,.08-.16-.12-.29-.62-.37-.25-.17-.37-.41-.37-.75-.08-.33-.17-.33-.25,0-.08,.33-.29,.5-.62,.5l.25,.37c-.5,.33-.83,.35-1,.06-.16-.29-.29-.64-.37-1.06,.08-1.16,.27-2.51,.56-4.05,.29-1.54,.64-2.8,1.06-3.8,0-.33,.08-.58,.25-.75v-.25c.08-1.16,.19-1.97,.31-2.43,.12-.46,.25-.83,.37-1.12,.12-.29,.27-.64,.44-1.06,.17-.41,.42-1.16,.75-2.24,.17-.41,.27-.85,.31-1.31,.04-.46,.06-.89,.06-1.31l.13-.87c.16-1.33,.44-2.68,.81-4.05s.77-2.76,1.18-4.17c.5-1.16,.91-2.2,1.25-3.11,.33-.91,.62-1.83,.87-2.74,.25-.91,.52-1.85,.81-2.8,.29-.95,.64-2.06,1.06-3.3,0-.08,.06-.13,.19-.13s.1-.08-.06-.25Zm-5.73,39.73v-.5c0,.08-.02,.23-.06,.44-.04,.21-.02,.44,.06,.69v-.62Z"/><path class="b" d="M75.53,38.31c-.17,.5-.52,.93-1.06,1.31-.54,.37-1.14,.64-1.81,.81-.67,.17-1.29,.21-1.87,.12-.58-.08-1-.29-1.25-.62,.17,.83,.23,1.48,.19,1.93-.04,.46-.15,1.14-.31,2.06-.25,.5-.37,1.08-.37,1.74-.17,.17-.29,.44-.37,.81-.08,.37-.17,.77-.25,1.18-.08,.42-.19,.75-.31,1-.12,.25-.23,.29-.31,.13,0,.08,.02,.19,.06,.31,.04,.13-.06,.23-.31,.31,0,.08-.04,.21-.13,.37,0,.5-.19,1.23-.56,2.18-.37,.96-.64,1.64-.81,2.06-.17,.25-.31,.5-.44,.75-.12,.25-.31,.37-.56,.37v.12c0,.5-.15,.89-.44,1.18-.29,.29-.44,.64-.44,1.06,.08,.17,.04,.42-.12,.75-.17,.17-.29,.37-.37,.62-.08,.25-.21,.46-.37,.62h-.25c-.08,0-.12,.04-.12,.12-.42,.17-.71,.48-.87,.93-.17,.46-.33,.85-.5,1.18-.42,.33-.81,.75-1.18,1.25-.37,.5-.77,.83-1.18,1l-.5,.5h-.12l-.25,.25-.13,.12c-.42,.42-.75,.5-1,.25-.08-.41-.19-.58-.31-.5-.12,.08-.35,.25-.69,.5v.13c-.25,0-.5,.06-.75,.19s-.52,.27-.81,.44c-.29,.17-.58,.29-.87,.37-.29,.08-.52,0-.69-.25h-.37c-.33,0-.7-.33-1.12-1v-.13c-.08-.33-.41-.62-1-.87-.25-.58-.62-.54-1.12,.13,.08,.08,.08,.12,0,.12-.41-.08-.64-.29-.69-.62-.04-.33-.1-.7-.19-1.12-.17-1.91-.04-4.09,.37-6.54,.42-2.45,.79-4.42,1.12-5.92,.25-.5,.5-.87,.75-1.12,0-.08-.04-.17-.12-.25,0-.41,.21-.79,.62-1.12v-.25c-.17-.33-.12-.62,.13-.87,.17-.58,.31-1.04,.44-1.37,.12-.33,.31-.75,.56-1.25h.13c.33-1.83,.87-3.49,1.62-4.98,.75-1.49,1.66-2.86,2.74-4.11,.41-.33,.58-.48,.5-.44-.08,.04,.08-.02,.5-.19,.25-.17,.46-.31,.62-.44,.17-.13,.37-.23,.62-.31,0-.08,.25-.25,.75-.5,.08,0,.12,.04,.12,.13,.17-.08,.27-.17,.31-.25,.04-.08,.1-.17,.19-.25,.58-.25,.87-.08,.87,.5,.25,.58,.21,1.04-.12,1.37,0,.17,.04,.25,.12,.25,0,.08,.04,.12,.13,.12-.25,.33-.4,.52-.44,.56-.04,.04-.02,.02,.06-.06s.25-.1,.5-.06c.25,.04,.5,.23,.75,.56,.08,0,.17,.04,.25,.12,0,.08,.04,.17,.12,.25,.17,.33,.25,.6,.25,.81s-.21,.64-.62,1.31l-.25,.37c-.08,.17-.1,.23-.06,.19,.04-.04,.02,.02-.06,.19-.17,.17-.25,.37-.25,.62,0,.33-.13,.54-.37,.62-.17,.58-.33,1.04-.5,1.37-.08,.25-.21,.54-.37,.87-.08,.17-.12,.33-.12,.5,.16-.5,.29-.91,.37-1.25,.17-.75,.29-1.16,.37-1.25-.08,.08-.12,.17-.12,.25v.25c-.17,.33-.25,.58-.25,.75-.33,.42-.5,.91-.5,1.49s-.21,1.08-.62,1.5c-.17,.08-.33,.12-.5,.12l.12,.12c0,.08,.04,.17,.13,.25-.08,.58-.42,1.21-1,1.87-.25,.42-.46,.85-.62,1.31-.17,.46-.46,1.02-.87,1.68,0,.17-.08,.21-.25,.13v.12c.17,.42,.06,1.14-.31,2.18-.37,1.04-.64,1.76-.81,2.18-.17,.17-.35,.4-.56,.69-.21,.29-.4,.4-.56,.31l-.13,.12c0,.08,.02,.19,.06,.31,.04,.12,.06,.23,.06,.31s-.02,.15-.06,.19c-.04,.04-.06,.1-.06,.19,.08,.08,.21,.25,.37,.5-.08,.08-.11,.19-.06,.31,.04,.13,.06,.23,.06,.31-.17,.25-.29,.56-.37,.93-.08,.37,0,.69,.25,.93,.08-.08,.21-.17,.37-.25,.41-.25,.85-.6,1.31-1.06s.81-.73,1.06-.81h.37c.16-.17,.31-.44,.44-.81,.12-.37,.27-.64,.44-.81v-.87c.08,0,.12-.04,.12-.13l.13-.25c.33-.25,.52-.48,.56-.69,.04-.21,.1-.39,.19-.56,0-.08,.02-.13,.06-.13,.04,0,.06-.04,.06-.12,.08,0,.12-.04,.12-.12v-.13h.25c.08-.25,.27-.79,.56-1.62,.29-.83,.44-1.37,.44-1.62l.25-.5c.25-.5,.37-.87,.37-1.12,.08-.17,.08-.33,0-.5-.08-.16-.04-.21,.13-.12v-.12c-.08-.58-.02-1.1,.19-1.56,.21-.46,.31-.93,.31-1.43,.41-.66,.66-1.2,.75-1.62,.08-.25,.17-.48,.25-.69,.08-.21,.12-.39,.12-.56-.08-.17-.12-.37-.12-.62,0-.58,.08-1.1,.25-1.56,.17-.46,.33-.93,.5-1.43v-1.81c0-.54-.04-1.18-.13-1.93v-.12l-.12-.13c0-.41-.02-.6-.06-.56-.04,.04-.02-.1,.06-.44,.25-.17,.41-.37,.5-.62,.08-.25,.29-.33,.62-.25,.08-.08,.17-.08,.25,0,.08,.08,.12,.19,.12,.31v.37c0,.13,.04,.15,.13,.06,.08,0,.14,.02,.19,.06,.04,.04,.1,.06,.19,.06,.17-.17,.33-.25,.5-.25s.33,.04,.5,.12c.5,.25,.91,.58,1.25,1,.33,.42,.75,.91,1.25,1.49,.83,.42,1.58,.58,2.24,.5,.66-.08,1.22-.23,1.68-.44,.46-.21,.83-.31,1.12-.31s.44,.29,.44,.87c0,.08-.15,.35-.44,.81-.29,.46-.52,.64-.69,.56,.83-.33,1.31-.46,1.43-.37,.12,.08,.27,.54,.44,1.37Z"/><path class="b" d="M90.23,31.71c.25,.25,.46,.42,.62,.5,0,1.16-.02,2.41-.06,3.74-.04,1.33-.27,2.41-.69,3.24l.12-.25-.12,.25v0c0,.25-.33,.62-1,1.12,0,.08,.04,.17,.13,.25-.08,.08-.15,.23-.19,.44-.04,.21-.15,.44-.31,.69,.08,.75-.21,1.45-.87,2.12l-.56,.56-.56,.56c-.17,.58-.46,.93-.87,1.06-.42,.12-.83,.27-1.25,.44-.67-.17-1.2-.37-1.62-.62-.42-.25-.62-1.2-.62-2.87l-.25-.5c-.17-.41-.23-.79-.19-1.12,.04-.33,.1-.58,.19-.75,0,.08,.08-.12,.25-.62,.17-.5,.33-1.04,.5-1.62,.17-.58,.37-1.16,.62-1.74-.5,.17-.79,.48-.87,.93-.08,.46-.42,.56-1,.31l.12,.25c.08,.67-.04,1.18-.37,1.56-.33,.37-.58,.77-.75,1.18-.17,.5-.29,.87-.37,1.12-.08,.25-.19,.46-.31,.62-.12,.17-.27,.37-.44,.62-.17,.25-.42,.67-.75,1.25-.08,.17-.21,.6-.37,1.31-.17,.71-.37,1.43-.62,2.18-.25,.75-.46,1.43-.62,2.06-.17,.62-.29,.93-.37,.93-.17,.42-.25,.79-.25,1.12v1.12c-.5,.75-.79,1.58-.87,2.49-.08,.91-.25,1.79-.5,2.62-.25,.25-.25,.5,0,.75,.17,.17,.41,.17,.75,0,.33-.08,.58-.25,.75-.5,.17-.25,.37-.46,.62-.62,.08,0,.12-.02,.12-.06,0-.04,.04-.06,.13-.06,.17,0,.27-.02,.31-.06,.04-.04,.14-.06,.31-.06,.08-.17,.29-.25,.62-.25,.41-.17,.75-.37,1-.62s.58-.46,1-.62c.17,0,.31-.04,.44-.12,.12-.08,.27-.17,.44-.25-.08-.08-.21-.25-.37-.5,.16-.08,.37-.25,.62-.5,.08-.08,.17-.12,.25-.12,.17-.25,.5-.73,1-1.43,.5-.7,.87-1.14,1.12-1.31h.5c.08,0,.14-.02,.19-.06,.04-.04,.1-.06,.19-.06,.41,.33,.52,.87,.31,1.62-.21,.75-.35,1.25-.44,1.5-.08,.17-.12,.33-.12,.5s-.04,.29-.13,.37h-.12v.13c-.17,.33-.29,.62-.37,.87-.08,.25-.04,.54,.12,.87,.17,.25,.33,.29,.5,.12l.37-.37c.08-.08,.17-.12,.25-.12,.17,0,.33,.12,.5,.37,.17,.42,.25,.77,.25,1.06s-.25,.52-.75,.69c-.25,.17-.44,.27-.56,.31-.13,.04-.4,.15-.81,.31-.25,.83-.71,1.49-1.37,1.99-.17,0-.27,.02-.31,.06s-.15,.06-.31,.06c-.08,.17-.29,.25-.62,.25,0,.17-.12,.29-.37,.37-.67,.42-1.23,.79-1.68,1.12-.46,.33-.98,.58-1.56,.75h-.25c-.33,0-.62,.04-.87,.12,0,.25-.25,.37-.75,.37-.25,.33-.56,.5-.93,.5s-.69,.08-.93,.25c-.5,0-1.08,.08-1.74,.25-.25,.25-.37,.21-.37-.12,.08-.5,.06-.89-.06-1.18-.12-.29-.23-.56-.31-.81,0-.17,.02-.33,.06-.5,.04-.16,.06-.33,.06-.5-.83-1.33-1.37-1.41-1.62-.25-.08,.08-.17,.15-.25,.19-.08,.04-.17,.15-.25,.31-.17-.16-.37-.27-.62-.31-.25-.04-.46-.19-.62-.44-.41-.83-.6-1.45-.56-1.87,.04-.41,.23-.95,.56-1.62-.17-1.33-.1-2.49,.19-3.49,.29-1,.6-2.07,.93-3.24,0-.58,.21-1.08,.62-1.49,0-.58,.1-1.1,.31-1.56,.21-.46,.39-1.02,.56-1.68,0-.33,.06-.58,.19-.75,.13-.17,.19-.33,.19-.5,0-.83,.08-1.45,.25-1.87v-.37c.08-.5,.41-.87,1-1.12,0-.17-.02-.33-.06-.5-.04-.17,.02-.29,.19-.37-.08-.41,.04-.79,.37-1.12,.17-.5,.41-.91,.75-1.25s.62-.7,.87-1.12c0-.41,.08-.69,.25-.81,.17-.13,.33-.27,.5-.44,.25-.83,.6-1.47,1.06-1.93,.46-.46,.89-.97,1.31-1.56l1-1c.25-.25,.54-.5,.87-.75h-.25c-.17-.16-.19-.29-.06-.37,.13-.08,.19-.25,.19-.5v-.12l.25-.13c.41,0,.81,.02,1.18,.06,.37,.04,.77,.27,1.18,.69,.91,.5,1.7,.56,2.37,.19,.66-.37,1.41-.64,2.24-.81,.58-.17,1.16-.27,1.74-.31,.58-.04,1.12,.27,1.62,.93Zm-.62,7.22v-.13l-.12,.13h.12Z"/><path class="b" d="M100.57,36.57l-.62-1.37h.12v0l.25,.87c.08-.25,.17-.33,.25-.25v.5c.08-.25,.25-.37,.5-.37-.25,.42-.25,.54,0,.37,.25-.17,.62-.48,1.12-.93,.5-.46,1.06-1.02,1.68-1.68,.62-.66,1.14-1.29,1.56-1.87,.08-.08,.39-.41,.93-1,.54-.58,.93-.91,1.18-1l.37-.37v.25c.08,.08,.13,.17,.13,.25,.16,.08,.25-.17,.25-.75-.58,.25-.79,.31-.62,.19,.17-.12,.41-.23,.75-.31h.25c-.17-.08-.25-.14-.25-.19,0-.04-.04-.1-.13-.19,.33-.5,.5-.7,.5-.62l1.18-1.18c.37-.37,.89-.69,1.56-.93v-.12c.17-.25,.37-.17,.62,.25,.25,.42-.04,1.08-.87,1.99-.17,.08-.15,.12,.06,.12h.44c.17-.08,.19-.06,.06,.06-.12,.13-.25,.25-.37,.37s-.19,.21-.19,.25c0,.04,.21-.14,.62-.56l2.12-2.49c.41-.41,.87-.37,1.37,.12,.5,.5,.41,1.2-.25,2.12,0,.08-.21,.21-.62,.37v.75l.37-.37c.16,0,.35-.04,.56-.13,.21-.08,.48-.21,.81-.37l-.13,.12c.08,.17,.17,.25,.25,.25s.13,.08,.13,.25l-.13,.25c-.42,.17-.75,.5-1,1l-.87,.87-.12,.12c0,.42-.17,.67-.5,.75-.5,.5-.91,.75-1.25,.75-.17,.58-.44,1.02-.81,1.31-.37,.29-.73,.69-1.06,1.18-1,.58-1.5,1.25-1.5,1.99-.08,0-.21,.02-.37,.06-.17,.04-.29,.06-.37,.06-.42,.5-.67,.89-.75,1.18-.08,.29-.17,.44-.25,.44-.67,.75-1.14,1.16-1.43,1.25-.29,.08-.6,.54-.93,1.37-.25,.33-.33,.42-.25,.25,.08-.17,.21-.39,.37-.69,.16-.29,.29-.54,.37-.75,.08-.21,0-.19-.25,.06,.33,.17,.46,.25,.37,.25v1.25c.08,.25,.08,.54,0,.87,0,.75,.04,1.76,.13,3.05,.08,1.29,.33,2.14,.75,2.55-.17,.58-.08,.96,.25,1.12-.17,.33-.19,.62-.06,.87,.12,.25,.27,.5,.44,.75v.37c-.17,.08-.23,.15-.19,.19,.04,.04,.02,.06-.06,.06l.5,2.12c-.08,.25-.02,.31,.19,.19,.21-.12,.1,.06-.31,.56-.08,.17-.08,.29,0,.37,.08,.08,.13,.17,.13,.25l.25-.12c.33,.42,.54,1.08,.62,1.99,.08,.91,.37,1.62,.87,2.12,.08,.17,.14,.67,.19,1.49,.04,.83-.02,1.33-.19,1.5,.17,1.16-.08,2.04-.75,2.62-.67,.58-1.2,.67-1.62,.25h.25l-.5-.12h-.25l-.13-.37v-.25c.17-.17,.23-.27,.19-.31-.04-.04-.15,.02-.31,.19-.08,0-.04,.29,.12,.87-.25-.25-.42-.29-.5-.12l-.87-.25c-.42-.17-.56-.23-.44-.19,.13,.04,.1,.23-.06,.56l-.87,.5-.25,.62-.12-.62c-.08-.58-.25-1.26-.5-2.06-.25-.79-.5-1.6-.75-2.43-.25-.83-.46-1.68-.62-2.55-.17-.87-.25-1.64-.25-2.3-.17,0-.27-.1-.31-.31-.04-.21,.02-.39,.19-.56-.17-.33-.31-.7-.44-1.12-.12-.41-.27-1-.44-1.74-.17-.75-.31-1.76-.44-3.05-.12-1.29-.27-2.93-.44-4.92l-2.49,9.72-.25,.5c-.25,.17-.37,.37-.37,.62l-.5,1.49c0,.58-.12,.96-.37,1.12,.08,.33,.08,.64,0,.93-.08,.29-.21,.64-.37,1.06-.42,.25-.64,.69-.69,1.31-.04,.62-.19,1.14-.44,1.56,0,.33-.04,.58-.12,.75,.08,.08,.12,.21,.12,.37-.08,.17-.12,.29-.12,.37s-.04,.17-.13,.25l-.12,.25c-.25,.08-.5,.13-.75,.13-.75-.75-1.33-.54-1.74,.62-.41,.25-.95,.33-1.62,.25-.66-.08-1.25-.37-1.74-.87-.17-.25-.25-.5-.25-.75v-.75c.17-.66,.21-1.29,.13-1.87-.08-.58-.04-1.12,.12-1.62,.33-.08,.5-.17,.5-.25-.17-.25-.17-.5,0-.75,0-.25-.04-.46-.12-.62l.12-.62c0-.16,.02-.33,.06-.5,.04-.17,.02-.33-.06-.5,.08-.17,.19-.35,.31-.56,.12-.21,.23-.39,.31-.56-.08-.25,0-.62,.25-1.12,.25-.5,.5-.83,.75-1-.33-1.33-.17-2.49,.5-3.49,.08-.17,.17-.33,.25-.5,.08-.17,.17-.37,.25-.62v-.25c.08-.25,.06-.48-.06-.69-.12-.21-.1-.39,.06-.56v.37c.08-.08,.15-.17,.19-.25,.04-.08,.1-.17,.19-.25,.08-.08,.08-.12,0-.12s-.17,.04-.25,.12c.17-.33,.35-1.02,.56-2.06,.21-1.04,.31-1.72,.31-2.06,.08-.17,.21-.31,.37-.44,.17-.12,.29-.27,.37-.44,.08-.41,.14-.79,.19-1.12,.04-.33,.14-.66,.31-1-.17-.08-.17-.17,0-.25,.17-.91,.39-1.83,.69-2.74,.29-.91,.56-1.83,.81-2.74,.17-.5,.29-1,.37-1.49,.08-.5,.21-1,.37-1.5,0-.17,.04-.27,.13-.31,.08-.04,.12-.1,.12-.19s.04-.14,.13-.19c.08-.04,.12-.1,.12-.19,.25-.08,.37-.17,.37-.25,0-.33-.02-.52-.06-.56-.04-.04-.08-.08-.13-.13-.04-.04-.06-.08-.06-.12s.04-.23,.13-.56v-.81c0-.29,.08-.56,.25-.81l.25-.75c0-.08,.08-.16,.25-.25,.16-.5,.31-1,.44-1.5,.12-.5,.19-1.04,.19-1.62,.17-.83,.33-1.45,.5-1.87,.33-.25,.52-.52,.56-.81,.04-.29,.14-.56,.31-.81,0-.16,.04-.29,.12-.37,0-.08,.02-.12,.06-.12,.04,0,.06-.04,.06-.13,0-.5,.21-.87,.62-1.12,0-1.33,.17-2.41,.5-3.24,.17-.17,.29-.25,.37-.25,.17-.33,.29-.58,.37-.75,.08-.16,.14-.29,.19-.37,.04-.08,.1-.19,.19-.31,.08-.12,.21-.35,.37-.69l.37-1.25,1.49-.5-.37,2.12c0,.33-.04,.58-.13,.75-.08,.08-.17,.25-.25,.5,0,.08-.12,.17-.37,.25l.25,.13h.12c-.08,.17-.19,.31-.31,.44-.13,.12-.19,.27-.19,.44-.17,.17-.21,.37-.13,.62,0,.25,.17,.5,.5,.75v.5c-.17,.17-.1,.21,.19,.12,.29-.08,.35-.21,.19-.37-.08,0-.21-.08-.37-.25,.08-.17,.1-.33,.06-.5-.04-.17,.02-.29,.19-.37,.08,0,.12,.04,.12,.12,.33-1.66,.95-2.41,1.87-2.24-.17,.17-.25,.42-.25,.75,.17,.33,.17,.67,0,1-.17,.33-.08,.46,.25,.37-.08,0-.12-.04-.12-.13l.12-.12c.41-.41,.69-.46,.81-.13,.12,.33,.19,.71,.19,1.12-.17,.75-.23,1.43-.19,2.06,.04,.62-.02,1.23-.19,1.81-.33,1.16-.52,1.83-.56,1.99-.04,.17-.06,.21-.06,.12s-.04-.06-.12,.06c-.08,.13-.29,.69-.62,1.68,0,.42,.06,.77,.19,1.06,.12,.29,.19,.64,.19,1.06-.17,.17-.37,.29-.62,.37-.25,.08-.37,.21-.37,.37s.02,.23,.06,.19l.19-.19,.25-.25c.08-.08,.08-.04,0,.13-.33,0-.5,.17-.5,.5v.87c-.33,.83-.64,1.87-.93,3.11-.29,1.25-.52,2.28-.69,3.11l-.25,.12-.12,.13v.69c0,.29-.08,.64-.25,1.06-.17,.33-.06,.42,.31,.25,.37-.17,.48-.25,.31-.25h-1.12Zm5.98-6.35l.13-.13v.13h-.13Z"/><path class="b" d="M137.56,52.51c0,.25-.08,.46-.25,.62-.25,.67-.44,1.02-.56,1.06-.12,.04-.21,0-.25-.13-.04-.12-.08-.16-.12-.12-.04,.04-.19,.44-.44,1.18-.08,.25-.13,.33-.13,.25s.02-.19,.06-.31c.04-.12,.06-.23,.06-.31s-.04,.04-.13,.37c-.08,.33-.15,.62-.19,.87-.04,.25-.02,.54,.06,.87-.17,.25-.29,.52-.37,.81-.08,.29-.21,.52-.37,.69-.08,.08-.12,.15-.12,.19,0,.04-.04,.1-.13,.19l-.12,.25c.08,.42,.06,.77-.06,1.06-.12,.29-.23,.64-.31,1.06,0,.17-.04,.33-.12,.5-.08,.17-.04,.33,.12,.5,0,.08-.02,.15-.06,.19-.04,.04-.06,.1-.06,.19s-.02,.15-.06,.19c-.04,.04-.06,.1-.06,.19,.08,.75,.02,1.45-.19,2.12-.21,.67-.39,1.33-.56,1.99,0,.08-.08,.21-.25,.37-.08,.67-.17,1.02-.25,1.06-.08,.04-.25,.4-.5,1.06v1.25c.08,.42,.08,.79,0,1.12,0,1.08-.21,1.7-.62,1.87-.42,.25-.75,.04-1-.62-.17-.41-.21-.79-.12-1.12,.08-.33,.08-.7,0-1.12,0-.25-.04-.46-.13-.62h.25c.41,.42,.58,.85,.5,1.31-.08,.46-.21,.93-.37,1.43,.33-.17,.54-.33,.62-.5l-.25-.5c.08-.16,.12-.31,.12-.44s.04-.27,.13-.44c-.17-.41-.25-.77-.25-1.06s-.04-.64-.12-1.06c0-.5,.02-1.02,.06-1.56,.04-.54,.02-1.06-.06-1.56v-.25c0,.17,.08,.58,.25,1.25-.17,.25-.17,.5,0,.75v-.87c0-.25-.04-.46-.12-.62-.08-.17-.12-.35-.12-.56s-.08-.35-.25-.44c-.17-.17-.29-.14-.37,.06-.08,.21-.12,.4-.12,.56,0,.83-.13,1.37-.37,1.62-.08,0-.17-.04-.25-.13,.08,.91,.02,1.14-.19,.69-.21-.46-.56-.77-1.06-.93-.17-.08-.29-.33-.37-.75-.17-.25-.27-.16-.31,.25-.04,.42-.23,.67-.56,.75v.25c-.33,.42-.56,.46-.69,.12-.12-.33-.19-.7-.19-1.12,.08-1.16,.13-2.3,.13-3.43s.21-2.22,.62-3.3v-.62c0-.08,.02-.14,.06-.19,.04-.04,.06-.1,.06-.19,.25-1.16,.37-1.81,.37-1.93s0-.14,0-.06,.04,.08,.12,0,.29-.7,.62-1.87c.16-.41,.27-.83,.31-1.25,.04-.41,.06-.83,.06-1.25s.04-.7,.12-.87c.58-1.41,1.12-2.78,1.62-4.11,.5-1.33,1-2.7,1.5-4.11,.91-2.41,1.85-4.84,2.8-7.29,.95-2.45,1.81-4.92,2.55-7.41,0-.08,.04-.13,.13-.13s.04-.04-.13-.12c-.58-.33-.81-.73-.69-1.18,.13-.46,.27-.89,.44-1.31,0-.08,.08-.21,.25-.37,.33-.66,.41-1.25,.25-1.74,0-.08-.04-.17-.12-.25,1.83-2.16,2.78-4.57,2.86-7.22h.25c.17-.08,.35-.14,.56-.19,.21-.04,.39-.27,.56-.69,.08-.16,.1-.31,.06-.44-.04-.12,.02-.27,.19-.44,.58-.91,1.1-1.81,1.56-2.68,.46-.87,.89-1.76,1.31-2.68-.17,.08-.35,.17-.56,.25-.21,.08-.4,.21-.56,.37-.17,.08-.27,.15-.31,.19-.04,.04-.15,.1-.31,.19l-.5,.5-.62,.87c-.17,.17-.31,.31-.44,.44-.12,.13-.27,.27-.44,.44-.17,.17-.33,.29-.5,.37-.17,.08-.37,.12-.62,.12-.58,.08-.75-.21-.5-.87,0-.33,.21-.62,.62-.87,.17-.17,.27-.31,.31-.44,.04-.13,.14-.27,.31-.44l.5-.5h.25c0,.42-.17,.79-.5,1.12-.08,.17-.17,.27-.25,.31-.08,.04-.17,.15-.25,.31-.08,0-.15,.02-.19,.06-.04,.04-.11,.06-.19,.06-.17,.17-.29,.25-.37,.25,.17,.08,.5,.04,1-.13,0-.17,.04-.29,.12-.37,0-.17,.08-.33,.25-.5-.08,0,.04-.08,.37-.25,.08-.17,.29-.41,.62-.75s.66-.58,1-.75c.17-.25,.37-.46,.62-.62,.08-.17,.16-.27,.25-.31,.08-.04,.16-.1,.25-.19l.62-.62,.75-.37,.25-.25-.12-.13c.17-.08,.21-.06,.12,.06-.08,.13-.04,.15,.13,.06v-.13c.08-.08,.14-.16,.19-.25,.04-.08,.1-.17,.19-.25-.17,.08-.29,.17-.37,.25s-.21,.17-.37,.25c-.17,.08-.31,.17-.44,.25-.12,.08-.27,.13-.44,.13-.08,0-.17-.04-.25-.13-.08,.25-.29,.54-.62,.87-.17,.08-.33,.21-.5,.37-.33,.25-.75,.29-1.25,.12v-.12c-.17-.08-.13-.25,.12-.5,0-.25-.02-.5-.06-.75-.04-.25-.27-.37-.69-.37l-.12,.25c-.67,.25-1,.25-1,0-.08-.08-.04-.25,.13-.5,.08-.08,.19-.14,.31-.19,.13-.04,.23-.1,.31-.19,.41-.5,.91-.95,1.49-1.37,.58-.41,1.16-.83,1.74-1.25,1.49-.83,3.07-1.41,4.73-1.74,.17-.08,.29-.13,.37-.13s.21-.04,.37-.12v-.25c.41-.17,1.16-.33,2.24-.5,1.08-.17,2.16-.12,3.24,.13h.25c.17,0,.29,.02,.37,.06,.08,.04,.21,.06,.37,.06,1.08,.17,2.16,.37,3.24,.62,1.08,.25,2.03,.67,2.86,1.25,.08,.08,.29,.21,.62,.37,.25,.25,.46,.42,.62,.5l.25,.25,.25,.12,.13,.13h.12l.37,.37,.87,.75c.17,.17,.31,.31,.44,.44,.12,.13,.27,.27,.44,.44-.08,.25,.08,.5,.5,.75l.75,.87,.37,.37,.5,.5,.75,.87c.33,.5,.66,.91,1,1.25,.17,.17,.35,.37,.56,.62,.21,.25,.39,.46,.56,.62,.33,.33,.58,.67,.75,1,.41,.83,.79,1.66,1.12,2.49,.33,.83,.66,1.7,1,2.62,.33,.91,.54,1.85,.62,2.8,.08,.96,.13,1.89,.13,2.8,0,.67-.04,1.33-.13,1.99-.08,.67-.29,1.33-.62,1.99-.42,1.5-1,2.78-1.74,3.86-1.33,2.41-3.16,4.65-5.48,6.73-.67,.83-1.7,1.74-3.11,2.74-1,.83-2.08,1.62-3.24,2.37-1.16,.75-2.2,1.41-3.11,1.99-.17,.08-.31,.17-.44,.25-.13,.08-.27,.17-.44,.25-.42,.17-.71,.21-.87,.12h-.12c-.17,.17-.37,.33-.62,.5-.25,.17-.46,.33-.62,.5-.58,.17-1.18,.35-1.81,.56-.62,.21-1.14,.48-1.56,.81-.25,.17-.48,.29-.69,.37-.21,.08-.44,.21-.69,.37-.67,.08-1.29,.23-1.87,.44-.58,.21-1.2,.39-1.87,.56l-.12,.13c-.17,.17-.35,.31-.56,.44-.21,.12-.48,.23-.81,.31-.33,.17-.64,.27-.93,.31-.29,.04-.56,.1-.81,.19-.67,0-1.16,.17-1.49,.5-.17-.08-.4-.12-.69-.12h-.69c-.33-.17-.5-.33-.5-.5,.25-.41,.66-.79,1.25-1.12,.41-.17,.79-.31,1.12-.44,.33-.13,.7-.27,1.12-.44,.25-.33,.58-.66,1-1,.41-.33,.54-.66,.37-1-.5,0-.96-.02-1.37-.06-.42-.04-.91,.06-1.5,.31-1.25,0-1.37-.33-.37-1,.58-.33,1.16-.62,1.74-.87,.58-.25,1.25-.46,1.99-.62l1.87-.75,.5-.25,.75-.37c.41-.17,.77-.31,1.06-.44,.29-.13,.6-.27,.93-.44,.08-.25,.25-.41,.5-.5,.17-.17,.29-.25,.37-.25,.33-.25,.62-.46,.87-.62,.25-.17,.58-.33,1-.5l.5-.25c.08,0,.19-.02,.31-.06,.12-.04,.23-.06,.31-.06,.25-.25,.5-.46,.75-.62,.25-.17,.58-.33,1-.5,.66-.5,1.39-.97,2.18-1.43,.79-.46,1.6-.98,2.43-1.56,.25-.16,.46-.31,.62-.44,.17-.12,.33-.27,.5-.44v-.37c0-.17,.08-.33,.25-.5l.25-.5c.25-.17,.54-.37,.87-.62,.33-.25,.58-.5,.75-.75,.08-.08,.14-.12,.19-.12,.04,0,.1-.04,.19-.13,.08-.08,.17-.14,.25-.19,.08-.04,.17-.14,.25-.31l.37-.37c0-.17,.08-.33,.25-.5l.25-.25,.25-.5c.08-.08,.17-.14,.25-.19,.08-.04,.17-.1,.25-.19v-.12l.37-.75c.08-.17,.13-.29,.13-.37s.04-.21,.12-.37c.17-.25,.27-.5,.31-.75,.04-.25,.14-.5,.31-.75,.5-1.08,.7-2.07,.62-2.99,.08-.91-.08-2.03-.5-3.36-.25-.25-.33-.5-.25-.75,0-.08-.04-.17-.13-.25v-.37c-.17-.17-.25-.41-.25-.75-.33-.66-.66-1.33-1-1.99-.33-.66-.75-1.33-1.25-1.99-.58-.66-1.1-1.33-1.56-1.99-.46-.66-1.02-1.33-1.68-1.99-.42-.5-.81-1-1.18-1.5-.37-.5-.89-.95-1.56-1.37l-.12-.12-.13-.13c-.08,0-.12-.02-.12-.06,0-.04-.04-.06-.12-.06l-.5-.25c-.17-.08-.35-.14-.56-.19-.21-.04-.4-.14-.56-.31-.08,0-.15-.02-.19-.06-.04-.04-.1-.06-.19-.06l-.12-.13h-.37c-.25,0-.42-.04-.5-.12h-.25c-.17,.5-.33,.87-.5,1.12-.17,.5-.25,.87-.25,1.12-.42,.91-.83,1.77-1.25,2.55-.42,.79-.96,1.52-1.62,2.18-.33,.67-.71,1.56-1.12,2.68-.42,1.12-.81,2.2-1.18,3.24-.37,1.04-.85,2.3-1.43,3.8l-.13-.13c-.17,.42-.37,.85-.62,1.31-.25,.46-.37,.93-.37,1.43,.08,.58-.02,1.04-.31,1.37-.29,.33-.52,.71-.69,1.12l-.37,.75c0,.08,.02,.15,.06,.19,.04,.04,.06,.11,.06,.19-.17,.91-.4,1.7-.69,2.37-.29,.67-.6,1.33-.93,1.99-.33,.33-.5,.71-.5,1.12,0,.08,.02,.15,.06,.19,.04,.04,.06,.15,.06,.31,.08,.42,.08,.79,0,1.12-.08,.33-.19,.64-.31,.93-.12,.29-.27,.56-.44,.81-.08,.08-.12,.15-.12,.19,0,.04-.04,.11-.13,.19-.08,.17-.21,.5-.37,1,0,.17-.02,.27-.06,.31-.04,.04-.06,.15-.06,.31v.25c-.08,.17-.19,.31-.31,.44s-.23,.27-.31,.44v.13c0,.67-.12,1.23-.37,1.68-.25,.46-.5,.98-.75,1.56-.33,.83-.58,1.79-.75,2.86-.25,.67-.44,1.27-.56,1.81-.13,.54-.27,1.14-.44,1.81-.08,.33-.13,.62-.13,.87s-.04,.5-.12,.75Z"/><path class="b" d="M175.55,61.23c-.42,.91-.83,1.41-1.25,1.5h-.12l-.87,.37c-.17,.25-.42,.37-.75,.37-.17,.25-.42,.42-.75,.5-.33,.08-.67,.21-1,.37l-1.5,.5c-.25,.17-.37,.17-.37,0,.08-.5,.06-.87-.06-1.12s-.19-.58-.19-1l-.13-.62c-.66-1.41-1.04-1.41-1.12,0l-.62,.37c-.17-.08-.33-.13-.5-.13s-.33-.12-.5-.37c-.17-.33-.29-.7-.37-1.12-.08-.41-.17-.83-.25-1.25v-1.99c0-.17,.02-.33,.06-.5,.04-.17,.06-.33,.06-.5-.08-.41-.1-.79-.06-1.12,.04-.33,.1-.7,.19-1.12,.08-.17,.12-.35,.12-.56s.04-.39,.13-.56c.08-.33,.15-.62,.19-.87,.04-.25,.1-.54,.19-.87l.37-1.87c0-.17,.02-.33,.06-.5,.04-.17,.06-.33,.06-.5,.17-.25,.27-.48,.31-.69,.04-.21,.15-.44,.31-.69,.08-.25,.17-.5,.25-.75,.08-.25,.17-.46,.25-.62,.17-.33,.42-.91,.75-1.74l.75-1.87c.08-.58,.25-.91,.5-1,0-.17,.02-.33,.06-.5,.04-.16,.06-.29,.06-.37,.08-.5,.29-.91,.62-1.25,.08-.33,.29-.66,.62-1,.25-.25,.62-.54,1.12-.87,.16-.5,.5-.87,1-1.12,.08-.75,.46-1.37,1.12-1.87,.17-.17,.37-.35,.62-.56,.25-.21,.46-.39,.62-.56,.25-.25,.48-.39,.69-.44,.21-.04,.48-.19,.81-.44h-.25c-.08-.16,.04-.33,.37-.5,0-.17,.04-.25,.12-.25,.75,0,1.37,.21,1.87,.62,.33,.33,.7,.5,1.12,.5,.58,.08,1.2,0,1.87-.25,.33-.08,.62-.17,.87-.25,.25-.08,.54-.17,.87-.25,.41-.08,.79-.12,1.12-.12s.7,.08,1.12,.25c.17,.08,.41,.29,.75,.62l.25,.25c.41,0,.83,.12,1.25,.37,.41,.33,.81,.6,1.18,.81,.37,.21,.48,.64,.31,1.31,0,.08,.04,.27,.13,.56,.08,.29,.04,.52-.13,.69,.08-.08,.04,.29-.12,1.12-.17,.42-.29,.83-.37,1.25-.08,.42-.13,.58-.13,.5v.25c0,.08-.08,.37-.25,.87-.08,.17-.21,.5-.37,1-.17,.25-.29,.52-.37,.81-.08,.29-.21,.56-.37,.81h.25c-.08,.08-.15,.19-.19,.31-.04,.13-.11,.27-.19,.44,0,.08-.08,.46-.25,1.12-.08,.25-.17,.52-.25,.81-.08,.29-.21,.64-.37,1.06-.17,.33-.27,.67-.31,1-.04,.33-.15,.67-.31,1-.17,.42-.31,.81-.44,1.18-.12,.37-.27,.77-.44,1.18,0,.17-.13,.54-.37,1.12-.08,.25-.21,.71-.37,1.37l-.37,1.12c-.17,.42-.27,.77-.31,1.06-.04,.29-.1,.6-.19,.93-.08,.33-.17,.64-.25,.93-.08,.29-.12,.52-.12,.69-.08,.42-.17,.75-.25,1-.08,.25-.21,.54-.37,.87-.08,.25-.17,.5-.25,.75-.08,.25-.17,.46-.25,.62-.17,.25-.27,.5-.31,.75-.04,.25-.15,.46-.31,.62-.42,.67-.71,1.08-.87,1.25-.42,.42-.71,.62-.87,.62h-.25c-.08,.25-.33,.37-.75,.37-.33,.17-.62,.17-.87,0-.25-.17-.5-.17-.75,0-.17,0-.39,.02-.69,.06-.29,.04-.56,.06-.81,.06-.25,.17-.37,.13-.37-.12v-.13h-.25c-.17,.17-.21,.08-.13-.25,.08-.33,.08-.41,0-.25-.17-.16-.19-.1-.06,.19,.13,.29,.14,.35,.06,.19-.08-.08-.15-.14-.19-.19-.04-.04-.15-.1-.31-.19-.17-.41-.1-.83,.19-1.25,.29-.41,.48-.7,.56-.87h-.12l.37-1.37v-.13Zm-.5-6.6c0-.17,.08-.41,.25-.75,.17-.33,.33-.7,.5-1.12,.08-.17,.14-.31,.19-.44,.04-.12,.1-.27,.19-.44,.17-.33,.33-.62,.5-.87,.17-.25,.29-.46,.37-.62l.62-1.62,1-2.74,1.12-3.49,.62-1.25,.25-.87,.37-1.12,.5-1.87c-.17-.25-.27-.37-.31-.37s-.04,.04,0,.12c.04,.08,.13,.19,.25,.31,.13,.12,.23,.15,.31,.06h-.13l-.5,.25c-.17,.17-.06,.21,.31,.13,.37-.08,.48-.17,.31-.25-.17,.17-.4,.31-.69,.44-.29,.13-.56,.27-.81,.44-.58,.5-.96,.83-1.12,1-.25,.33-.48,.62-.69,.87-.21,.25-.4,.5-.56,.75-.17,.17-.33,.35-.5,.56-.17,.21-.37,.48-.62,.81-.17,.17-.35,.4-.56,.69-.21,.29-.4,.6-.56,.93-.08,.17-.15,.27-.19,.31-.04,.04-.1,.15-.19,.31l-.37,.75c-.08,.17-.17,.31-.25,.44-.08,.12-.17,.27-.25,.44-.42,.75-.67,1.41-.75,1.99-.67,.83-.96,1.5-.87,1.99-.17,.17-.33,.5-.5,1-.08,.17-.12,.29-.12,.37s-.04,.21-.13,.37l-.37,1.49c0,.17-.02,.27-.06,.31-.04,.04-.06,.15-.06,.31-.08,.42-.12,.81-.12,1.18v2.12c0,.29,.21,.31,.62,.06,.25-.17,.48-.29,.69-.37,.21-.08,.48-.21,.81-.37,.41-.17,.58-.46,.5-.87-.08-.41,.21-.7,.87-.87l.12-.5Z"/><path class="b" d="M209.55,35.82c-.42,.58-.71,1.14-.87,1.68-.17,.54-.33,1.14-.5,1.81-.42,.5-.77,1.14-1.06,1.93-.29,.79-.23,1.89,.19,3.3,0,.25-.02,.52-.06,.81-.04,.29-.06,.6-.06,.93,.08,.33,0,.67-.25,1-.25,.33-.58,.42-1,.25v.25c-.17,.42-.29,.62-.37,.62-1.58,1.08-2.74,1.33-3.49,.75h-1c-.58,.08-.87,.17-.87,.25-.42,.25-.56,.29-.44,.12,.13-.17,.23-.5,.31-1-.42-1.08-.42-2.32,0-3.74,.08-.17,0-.39-.25-.69-.25-.29-.46-.52-.62-.69-.25-.17-.44-.08-.56,.25-.12,.33-.27,.58-.44,.75,.08,.17-.04,.25-.37,.25h-.25c-.17,.33-.27,.69-.31,1.06-.04,.37-.15,.69-.31,.93-.42,.67-.62,1.1-.62,1.31s-.25,.64-.75,1.31c-.08,.33-.19,.67-.31,1-.12,.33-.27,.75-.44,1.25-.08,.17-.13,.31-.13,.44s-.04,.27-.12,.44c-.17,.58-.4,1.18-.69,1.81-.29,.62-.48,1.23-.56,1.81,0,.33-.04,.58-.12,.75-.08,0-.25,.04-.5,.12,.5,.67,.41,1.2-.25,1.62-.42,1.16-.73,2.16-.93,2.99-.21,.83-.39,1.87-.56,3.11,.08,.5-.04,.85-.37,1.06-.33,.21-.58,.02-.75-.56v-.62c-.33,0-.46-.04-.37-.12,0-.08,.02,.12,.06,.62,.04,.5-.1,.58-.44,.25-.41,.17-.73,.17-.93,0-.21-.17-.37-.37-.5-.62-.12-.25-.23-.41-.31-.5s-.13,.08-.13,.5c-.17,.25-.41,.44-.75,.56-.33,.13-.66,.02-1-.31-.5-.16-.85-.46-1.06-.87-.21-.41-.27-.79-.19-1.12,.17-.66,.27-1.16,.31-1.49,.04-.33,.31-.79,.81-1.37,.17-.5,.08-1.12-.25-1.87,.42-.41,.6-.89,.56-1.43-.04-.54,.15-.89,.56-1.06l.25-.87c-.17-.41-.17-.58,0-.5,.17,.08,.17-.08,0-.5-.08-.17-.06-.29,.06-.37,.13-.08,.27-.21,.44-.37,.08-.58,.23-1.25,.44-1.99,.21-.75,.56-1.16,1.06-1.25v-.25c.33-.41,.52-.91,.56-1.49,.04-.58,.31-.95,.81-1.12l-.25,.12,.25-.12c-.08-.17-.13-.31-.13-.44s-.04-.27-.12-.44v-.13c0-.75,.06-1.33,.19-1.74,.12-.41,.31-.95,.56-1.62,.08-.17,.14-.39,.19-.69,.04-.29,.14-.52,.31-.69,.25-1.16,.62-2.62,1.12-4.36,.5-1.74,1.08-3.2,1.74-4.36,.33-.66,.83-.89,1.49-.69,.66,.21,1.16,.27,1.5,.19,.25-.08,.58,.1,1,.56,.41,.46,.83,.6,1.25,.44,.25-.17,.39-.17,.44,0,.04,.17,.04,.37,0,.62-.04,.25-.06,.48-.06,.69s.17,.27,.5,.19c.33-.08,.62-.31,.87-.69,.25-.37,.7-.69,1.37-.93,.17-.33,.35-.44,.56-.31,.21,.12,.39,.1,.56-.06,.17,.17,.35,.17,.56,0,.21-.17,.48-.33,.81-.5,.41-.17,.73-.14,.93,.06,.21,.21,.48,.15,.81-.19,.66-.83,1.12-.75,1.37,.25,.5,.5,.75,.87,.75,1.12v.62c0,.17-.13,.37-.37,.62s-.29,.46-.12,.62c.33-.41,.48-.56,.44-.44-.04,.13,.23,.11,.81-.06l.37,1.25Z"/><path class="b" d="M208.8,64.84l-.12-.25v-.37l.25-.12c.17-.25,.17-.46,0-.62-.17,0-.33,.29-.5,.87-.08,.33-.1,.62-.06,.87,.04,.25,.02,.46-.06,.62h-.25c-.08,.42-.14,.64-.19,.69-.04,.04-.06,0-.06-.12s-.04-.27-.13-.44c-.08-.17-.25-.25-.5-.25-.17-.17-.33-.41-.5-.75-.16-.33-.35-.27-.56,.19-.21,.46-.44,.77-.69,.93h-.62c-.41,.42-.64,.54-.69,.37-.04-.16,.02-.46,.19-.87,.17-.58,.33-1.33,.5-2.24,.17-.91,.33-1.87,.5-2.87,.17-1,.37-1.93,.62-2.8s.58-1.6,1-2.18c-.08-.17-.08-.29,0-.37,.08-.08,.13-.21,.13-.37l.12-.25c.17-.66,.33-1.45,.5-2.37,.17-.91,.42-1.62,.75-2.12,.17-.41,.31-1.14,.44-2.18,.12-1.04,.23-1.76,.31-2.18,.67-2.57,1.2-4.67,1.62-6.29,.41-1.62,.83-3.38,1.25-5.29,.08-.08,.17-.13,.25-.13s0-.08-.25-.25c-.08-.16-.08-.44,0-.81,.08-.37,.17-.69,.25-.93v-.12c0-.41-.23-.46-.69-.13-.46,.33-.81,.46-1.06,.37-.25,0-.46,.04-.62,.13-.16,.08-.33,.17-.5,.25,0,.75-.5,.87-1.5,.37-.33-.58-.25-1.29,.25-2.12-.66-.08-1.37,0-2.12,.25s-1.41,0-1.99-.75c0-.33,.04-.58,.12-.75-.33-.66-.33-.95,0-.87,.17,0,.33,.04,.5,.12l1.5-.25h.12c-.08,0-.12-.04-.12-.12,.67-.41,1.16-.7,1.49-.87,.33-.17,.67-.04,1,.37l.37-.12c.25-.66,.5-1,.75-1s.62-.13,1.12-.37c.58-.25,1.22-.44,1.93-.56,.7-.12,1.35-.27,1.93-.44,.25-.08,.31-.17,.19-.25-.12-.08-.1-.33,.06-.75,0-.17,.13-.33,.37-.5,.25-.16,.46-.33,.62-.5,.25-.5,.35-.75,.31-.75s-.1,.04-.19,.12c-.08,.08-.15,.08-.19,0-.04-.08,.06-.37,.31-.87,.33-.75,.58-1.33,.75-1.74,.17-.41,.33-.81,.5-1.18,.17-.37,.35-.75,.56-1.12,.21-.37,.52-.89,.93-1.56,.83-1,1.87-1.39,3.11-1.18,1.25,.21,2.16,.39,2.74,.56l.5,.25h.12l.25,2.87-.25,.37v.25l-.75,1.87-.37,1.12c-.08,.25-.12,.42-.12,.5-.17,.17-.13,.33,.12,.5,.17,.17,.41,.17,.75,0,.33-.17,.58-.17,.75,0,.83,.17,1.49,.04,1.99-.37,.17,0,.58,.02,1.25,.06,.66,.04,1.04,.15,1.12,.31,1.08-.17,2.07-.21,2.99-.13,.91,.08,1.91,.04,2.99-.12,.91-.25,1.85-.35,2.8-.31,.95,.04,1.64-.02,2.06-.19,.66,.25,1.31,.4,1.93,.44,.62,.04,.73,.02,.31-.06-.91-.08-1.31-.17-1.18-.25,.12-.08,.52-.14,1.18-.19,.66-.04,1.49-.08,2.49-.12,1-.04,1.95-.1,2.87-.19,.33,0,.62-.04,.87-.12,.66-.17,1.37-.23,2.12-.19,.75,.04,1.45,.15,2.12,.31,.5,.08,.98,.17,1.43,.25,.46,.08,.89,.25,1.31,.5v.13h.13c0-.25,.04-.41,.13-.5,.33,0,.54,.04,.62,.12,0-.08,.02-.17,.06-.25,.04-.08,.06-.16,.06-.25,.08-.16,.37-.25,.87-.25,.66-.17,1.45-.04,2.37,.37h.25c.33-.08,.62-.08,.87,0,.25,.08,.5,.12,.75,.12l.87,.25,.63-.12c.41,.17,.83,.23,1.24,.19,.42-.04,.83,.15,1.25,.56-.42,.17-.75,.25-1,.25s-.46,.04-.62,.13c-.17,0-.42,.06-.75,.19-.33,.13-.5,.11-.5-.06l-.62,.25c-.42,.17-.67,.17-.75,0-.33-.17-.79-.19-1.37-.06-.58,.12-1.08,.23-1.49,.31,.08,0,.13,.17,.13,.5h1.8c.62,0,1.22,.08,1.81,.25l.12-.13-.87-.37c.33-.08,.58-.1,.75-.06,.17,.04,.37,.06,.62,.06,1,0,2.03,.02,3.12,.06,1.08,.04,2.12,.15,3.11,.31h.62c.67-.16,1.16-.12,1.5,.13,.42-.08,1.04-.13,1.87-.13l1.12,.25c.25-.33,.48-.5,.68-.5h.69c.66,.08,1.35,.15,2.05,.19,.71,.04,1.39,.15,2.06,.31l1,.25c.25,.08,.48,.21,.68,.37,.21,.17,.23,.37,.06,.62-.08,.33-.42,.5-1,.5-.17,0-.35-.02-.56-.06-.21-.04-.48-.1-.81-.19-.75,.17-1.56,.25-2.43,.25s-1.64-.04-2.3-.13c-.42,.17-.77,.23-1.06,.19-.29-.04-.6-.06-.93-.06-.33,.17-.54,.12-.63-.13v-.12h-.13c-.25,0-.48-.02-.68-.06-.21-.04-.44,.02-.69,.19h-.75c-.67-.17-1.17-.21-1.5-.12h-.37c-.08,0-.15-.02-.19-.06-.04-.04-.15-.06-.31-.06v.13l-1.24,.5c-.58,0-1.04-.04-1.37-.13-.42,0-.85,.02-1.31,.06-.46,.04-.93,.02-1.43-.06-.17,.17-.37,.17-.62,0v.13h-.25l-.37,.37h.12c.25,.08,.42,.13,.5,.13,.17,.17,.39,.27,.69,.31,.29,.04,.56,.11,.81,.19l-.13,.13c0,.33-.04,.5-.13,.5l-.12,.12c-.33,0-.63-.02-.87-.06-.25-.04-.54-.06-.87-.06l-1.37,.12h-.38c-.08,.08-.37,.13-.87,.13-.67,0-1.16-.08-1.49-.25h-.13c-.5,.17-1.04,.21-1.62,.12-.58-.08-1.17-.04-1.74,.13-.58-.17-1.12-.19-1.62-.06-.5,.12-.92,.23-1.25,.31-.42,0-.67-.12-.75-.37-.17-.17-.35-.27-.56-.31-.21-.04-.4-.1-.56-.19-1.33,.17-2.64,.37-3.92,.62-1.29,.25-2.64,.29-4.05,.12l-.87,.12h-.5c-.75,.17-1.5,.25-2.24,.25s-1.54,.04-2.37,.13c-1.74,.25-2.78,.37-3.11,.37-.91,.17-1.79,.21-2.62,.13-.83-.08-1.62,.08-2.37,.5-1,.17-1.93,.29-2.8,.37-.87,.08-1.72,.25-2.55,.5-.25,0-.42-.08-.5-.25-.08,0-.13-.04-.13-.13-.17,.42-.25,.71-.25,.87-.08,.17-.21,.42-.37,.75l-.75,2.24v-.25l-.5,.87v.5c-.17,.25-.21,.48-.13,.69,.08,.21,.04,.44-.12,.69-.17,.17-.17,.29,0,.37v.12l.12-.12v.12c.17-.08,.27-.14,.31-.19,.04-.04-.02,.11-.19,.44-.08,.17-.17,.31-.25,.44-.08,.13-.13,.23-.13,.31v-.25c-.25,.42-.44,.83-.56,1.25-.13,.42-.27,.83-.44,1.25l-1.12,3.74v.81c0,.29-.08,.52-.25,.69-.17,.33-.21,.54-.13,.62-.33,.75-.54,1.12-.62,1.12,0,.33-.08,.67-.25,1-.33,.67-.6,1.27-.81,1.81-.21,.54-.23,1.14-.06,1.81-.08,.17-.19,.31-.31,.44-.12,.12-.19,.35-.19,.69-.33,.67-.46,1.25-.37,1.74l-.37,.25c0,.17-.04,.25-.12,.25l-.75,1.99c-.17,.17-.08,.35,.25,.56,.33,.21,.25,.35-.25,.44-.25,0-.37,.17-.37,.5-.08,.08-.04,.12,.12,.12h.25c0,.75-.19,1.66-.56,2.74-.37,1.08-.52,1.95-.44,2.62,0,.08-.08,.17-.25,.25-.33,.58-.79,.81-1.37,.69-.58-.13-.95-.6-1.12-1.43v.12c0,.08,.02,.15,.06,.19,.04,.04,.06,.1,.06,.19l-.13-.37Zm0-.37l.13-.12c-.08,0-.13,.04-.13,.12Zm3.36-32.88v.12l.12-.12h-.12Zm6.97,5.85v-1c0-.08,.04-.12,.13-.12s.12-.04,.12-.12l-.12-.13,.5-1v.13c.08-.17,.04,.08-.12,.75-.17,.67-.33,1.33-.5,1.99h-.12c0-.17,.04-.33,.12-.5Zm5.48-15.57c.25-.25,.39-.33,.44-.25,.04,.08,0,.23-.12,.44-.13,.21-.27,.42-.44,.62-.17,.21-.25,.27-.25,.19,.08-.17,.17-.33,.25-.5,.08-.17,.12-.33,.12-.5Z"/><path class="b" d="M240.19,31.96c.5-.17,1.1-.19,1.81-.06,.7,.13,1.27,.35,1.68,.69,.08,.5,.04,.96-.12,1.37-.08,.5-.17,.98-.25,1.43-.08,.46-.29,.98-.62,1.56l-.12,.13c0,.17-.04,.33-.13,.5v.87c0,.42-.04,.75-.12,1-.08,.17-.12,.35-.12,.56s-.04,.4-.13,.56c0,.17-.04,.29-.12,.37-.08,.08-.17,.21-.25,.37-.17,.5-.29,.98-.37,1.43-.08,.46-.17,.89-.25,1.31-.17,.17-.27,.4-.31,.69-.04,.29-.15,.52-.31,.69-.08,0-.12,.04-.12,.13v.12c-.08,.17-.11,.27-.06,.31,.04,.04,.02,.1-.06,.19-.25,1.16-.71,2.28-1.37,3.36-.17,.5-.25,.87-.25,1.12,0,.08,.04,.17,.13,.25,0,.17-.11,.42-.31,.75-.21,.33-.35,.62-.44,.87-.08,.25-.06,.4,.06,.44,.12,.04,.1,.23-.06,.56l-.12,.25c-.17,.17-.25,.31-.25,.44s-.04,.27-.13,.44c0,.08,.06,.17,.19,.25,.13,.08,.1,.21-.06,.37,0,.08-.02,.13-.06,.13-.04,0-.06,.04-.06,.12-.17,.33-.25,.54-.25,.62h-.12v.13c0,.17-.08,.42-.25,.75-.08,.67-.17,1.29-.25,1.87-.08,.58-.25,1.08-.5,1.49h.25l-.25,.87v.13l-.12,.5c0,.17-.08,.42-.25,.75l-.37,1.62h-.5l-.13,.13c-.17,.5-.19,1-.06,1.49,.13,.5,.1,1.08-.06,1.74-.08,.42-.31,1.08-.69,1.99-.37,.91-.81,2.37-1.31,4.36-.17,.83-.39,1.56-.69,2.18-.29,.62-.44,1.39-.44,2.3,0-.17,.08-.42,.25-.75-.08,.58-.19,1.06-.31,1.43-.13,.37-.27,.81-.44,1.31-.17,.41-.17,.83,0,1.25,0,.25-.08,.46-.25,.62v.37c-.08,.91-.23,1.76-.44,2.55-.21,.79-.39,1.64-.56,2.55,0-.25-.02-.42-.06-.5-.04-.08-.15,.08-.31,.5,0,.33-.04,.64-.13,.93-.08,.29-.17,.6-.25,.93l-.25,1.62c-.17,.58-.33,1.12-.5,1.62-.17,.5-.46,.83-.87,1-.5,.33-.75,.04-.75-.87,0-.5,.06-1.02,.19-1.56,.12-.54,.23-1.06,.31-1.56l.25-1,.13-.12c.17,.66,.19,1.33,.06,1.99-.12,.66-.31,1.33-.56,1.99,.25-.17,.46-.37,.62-.62l-.12-.75c.08-.17,.17-.37,.25-.62,.08-.25,.12-.46,.12-.62l.5-2.99c0-.33-.02-.5-.06-.5s-.1,.04-.19,.13c-.08,.08-.17,.19-.25,.31-.08,.13-.17,.19-.25,.19,0-.25-.02-.52-.06-.81-.04-.29-.15-.48-.31-.56-.17-.17-.27-.1-.31,.19-.04,.29-.1,.56-.19,.81-.08,.41-.15,.83-.19,1.25-.04,.41-.15,.7-.31,.87-.08,0-.17-.04-.25-.13v1.12c0,.08-.06,.02-.19-.19-.12-.21-.27-.44-.44-.69-.17-.25-.37-.42-.62-.5-.17-.17-.25-.5-.25-1-.17-.42-.21-.31-.13,.31,.08,.62-.04,.97-.37,1.06v.5c-.42,.41-.69,.41-.81,0-.12-.42-.15-.91-.06-1.5,.08-1.66,.21-3.28,.37-4.86,.17-1.58,.46-3.07,.87-4.48,0-.17,.02-.31,.06-.44,.04-.13,.06-.27,.06-.44,.08-.08,.12-.25,.12-.5,.08-.42,.13-.77,.13-1.06s.04-.52,.12-.69l.5-1.74,.62-3.61c0-.17,.02-.37,.06-.62,.04-.25,.06-.46,.06-.62l1.49-4.73-.12-.12c-.33-.5-.42-1.08-.25-1.74,.08-.75,.12-1.18,.12-1.31s-.04-.1-.12,.06l.12-.75c0-.08,.02-.25,.06-.5,.04-.25-.02-.37-.19-.37,.08-.08,.04-.08-.13,0-.17,.08-.25,.29-.25,.62-.58,.67-1.08,1.29-1.49,1.87-.42,.58-.96,1.08-1.62,1.49,0,.17-.08,.33-.25,.5-.42,.33-.69,.42-.81,.25-.13-.17-.4-.08-.81,.25-.17,.08-.29,.13-.37,.13s-.21,.08-.37,.25c-.75,.75-1.25,.67-1.49-.25-.33-.58-.25-1.12,.25-1.62v-.13h-.62c-.17,.17-.31,.15-.44-.06-.13-.21-.19-.19-.19,.06-.08,0-.12,.04-.12,.13s-.04,.12-.13,.12c-.08,.17,.06,.4,.44,.69,.37,.29,.39,.48,.06,.56l-.5,.25-.25,.37c-.41,.17-.66,.19-.75,.06-.08-.13-.14-.27-.19-.44-.04-.17-.1-.35-.19-.56-.08-.21-.25-.35-.5-.44-.25,0-.39-.35-.44-1.06-.04-.7,.02-1.51,.19-2.43,.17-1,.37-2.12,.62-3.36,.17-.25,.31-.64,.44-1.18,.13-.54,.27-1.06,.44-1.56,.17-.58,.29-1.25,.37-1.99,.17,0,.25-.16,.25-.5,.25-.83,.46-1.68,.62-2.55,.17-.87,.42-1.76,.75-2.68l.25-.87c.25-.33,.46-.87,.62-1.62v-.62l.25-.62v-1.12c0-.58,.04-.91,.12-1v-.75c.17-.41,.46-1.22,.87-2.43,.41-1.2,.54-2.06,.37-2.55,.08-.25,.21-.5,.37-.75,.33-.5,.54-.83,.62-1,.08-.08,.06-.08-.06,0-.12,.08-.15,.04-.06-.13,.41-.17,.62-.46,.62-.87,.33-.25,.56-.35,.69-.31,.12,.04,.27,.35,.44,.93-.42,.67-.54,1.02-.37,1.06,.17,.04,.46,.15,.87,.31,0,.08,.04,.13,.12,.13h.62c.25,0,.41,.08,.5,.25,0,.17,.04,.39,.12,.69,.08,.29,.33,.48,.75,.56,0-.08-.13-.25-.37-.5-.08-.75,.08-1.49,.5-2.24,.17-.33,.5-.5,1-.5l.75-.37c.41-.17,.62-.14,.62,.06s.08,.39,.25,.56c-.08,.91-.33,1.66-.75,2.24l-.12-.13c0,.08,.04,.13,.12,.13l.12,.12c0,.42-.08,.87-.25,1.37-.17,.5-.21,.75-.13,.75,0,.25-.15,.93-.44,2.06-.29,1.12-.62,2.35-1,3.67-.37,1.33-.75,2.55-1.12,3.67-.37,1.12-.6,1.81-.69,2.06-.25,.91-.46,2.14-.62,3.67-.17,1.54-.46,2.76-.87,3.67,0,.33-.13,.54-.37,.62,.25,0,.29,.17,.13,.5-.08,.33,.08,.58,.5,.75,.08,0,.12-.04,.12-.12,.08,0,.13-.08,.13-.25,0-.41,.12-.69,.37-.81,.25-.13,.54-.27,.87-.44,.91-.91,1.62-1.91,2.12-2.99,.5-1.08,1.08-2.2,1.74-3.36l.5-.5c.08-.08,.27-.62,.56-1.62,.29-1,.6-2.1,.93-3.3,.33-1.2,.62-2.3,.87-3.3,.25-1,.37-1.58,.37-1.74,.08-.25,.14-.46,.19-.62,.04-.17,.19-.33,.44-.5,.17-.33,.29-.6,.37-.81,.08-.21,.21-.44,.37-.69,.41-.25,.64-.64,.69-1.18,.04-.54,.23-.98,.56-1.31,0-.25,.08-.46,.25-.62,.16-.17,.25-.29,.25-.37,.16-.17,.29-.27,.37-.31,.08-.04,.21-.14,.37-.31,.08-.17,.25-.25,.5-.25,.17-.08,.37-.1,.62-.06,.25,.04,.46,.06,.62,.06,.41,.33,.66,.46,.75,.37s.25-.33,.5-.75Zm-19.93,30.27c0-.25-.02-.25-.06,0-.04,.25-.1,.46-.19,.62l.25-.25c.08,0,.17,.04,.25,.13v-.13c0,.08-.08-.04-.25-.37Zm7.22,25.03h.12v1c0-.17-.02-.33-.06-.5-.04-.17-.06-.33-.06-.5Zm1.87,1.74c.16-.17,.25-.29,.25-.37,0-.33,.04-.58,.13-.75,0,.41-.06,.87-.19,1.37-.13,.5-.19,.41-.19-.25Zm2.49-11.96l-.13,.25c0-.08,.04-.17,.13-.25Zm-.13,.5v0Zm.37-1c0,.08-.08,.21-.25,.37,.17-.67,.35-1.29,.56-1.87,.21-.58,.31-.79,.31-.62-.08,.42-.17,.79-.25,1.12-.08,.33-.21,.66-.37,1Z"/></svg>