<?xml version="1.0" encoding="utf-8"?>
<!-- Generator: Adobe Illustrator 26.2.1, SVG Export Plug-In . SVG Version: 6.00 Build 0)  -->
<svg version="1.1" id="a" xmlns="http://www.w3.org/2000/svg" xmlns:xlink="http://www.w3.org/1999/xlink" x="0px" y="0px"
	 viewBox="0 0 13.8 11.2" style="enable-background:new 0 0 13.8 11.2;" xml:space="preserve">
<style type="text/css">
	.st0{fill:#EC008C;}
</style>
<path class="st0" d="M6.4,1.7C6.4,1.7,6.5,1.8,6.4,1.7c0,0.1,0,0.1,0,0.2c0,0.1,0,0.1,0,0.2l0,0.2c0,0,0,0.1,0,0.1c0,0,0,0.1,0,0.1
	c0,0,0,0,0,0.1c0,0,0,0,0,0.1c0,0,0,0.1,0,0.2c0,0,0,0,0,0.1c0,0,0,0,0,0C6.3,3,6.2,3.2,6,3.4c0,0.1-0.1,0.2-0.2,0.3
	C5.8,3.7,5.7,3.8,5.6,3.9c0,0-0.1,0-0.1,0.1c0,0-0.1,0-0.1,0.1c0,0,0,0-0.1,0.1s0,0-0.1,0.1L5.1,4.3c0,0-0.1,0-0.1,0.1
	c0,0-0.1,0-0.1,0.1h0c0,0,0,0,0,0c0,0-0.1,0.1-0.1,0.1c0,0-0.1,0-0.1,0.1c0,0,0,0,0,0s0,0,0,0c0,0,0,0.1,0,0.1l0,0c0,0,0,0,0.1,0
	c0,0,0,0,0.1,0.1c0,0,0,0,0.1,0c0,0,0,0,0.1,0.1c0,0,0,0,0,0c0,0,0,0,0,0.1c0,0,0,0,0,0c0,0,0,0,0,0l0,0.1l0,0c0,0,0.1,0.1,0.2,0.2
	c0.1,0.1,0.1,0.2,0.2,0.3c0,0.1,0,0.1,0,0.2s0,0.1,0,0.2v0.1c0,0,0,0,0,0l0,0.1l0,0c0,0,0,0,0,0.1s0,0.1,0,0.1c0,0.1,0,0.2,0,0.3
	c0,0,0,0,0,0.1c0-0.1,0-0.2,0-0.2s0,0,0,0.1v0.1c0,0.1,0,0.1,0,0.1c0,0.1-0.1,0.1-0.1,0.2c0,0.1,0,0.1-0.1,0.2L5.4,7.5l0,0.1l0,0.1
	c0,0,0,0.1-0.1,0.1c0,0,0,0.1-0.1,0.1c0,0,0,0.1,0,0.1c0,0,0,0.1,0,0.1c0,0,0,0-0.1,0.1c0,0-0.1,0.1-0.1,0.1L5,8.4
	c0,0-0.1,0.1-0.1,0.1S4.8,8.6,4.8,8.7C4.7,8.7,4.7,8.8,4.7,8.8c0,0,0,0-0.1,0.1c0,0-0.1,0.1-0.1,0.2c0,0.1-0.1,0.1-0.1,0.2
	c0,0-0.1,0.1-0.1,0.1c0,0,0,0-0.1,0.1c0,0,0,0,0,0.1L4.1,9.5L4,9.5c0,0-0.1,0-0.1,0.1c0,0-0.1,0.1-0.1,0.1c0,0.1-0.1,0.1-0.1,0.2
	C3.6,9.9,3.6,10,3.5,10c-0.1,0.1-0.1,0.1-0.2,0.1c0,0,0,0-0.1,0l0,0c0,0-0.1,0.1-0.1,0.1c0,0-0.1,0-0.1,0.1c0,0,0,0,0,0c0,0,0,0,0,0
	c0,0,0,0,0,0l0,0c0,0-0.1,0.1-0.2,0.1c0,0-0.1,0-0.1,0c0,0-0.1,0-0.1,0.1l-0.1,0c-0.1,0-0.1,0.1-0.2,0.1c-0.1,0-0.1,0.1-0.2,0.1
	l-0.1,0.1c0,0-0.1,0.1-0.1,0.1c0,0-0.1,0-0.1,0c0,0,0,0,0,0c-0.1,0-0.1-0.1,0-0.2c0,0,0-0.1,0.1-0.1c0,0,0.1,0,0.1-0.1c0,0,0,0,0,0
	c0,0,0,0,0,0l0,0c0,0,0,0,0,0.1c0,0,0,0,0,0.1c0,0,0,0,0,0c0,0,0,0,0,0H1.6c0,0,0,0.1,0.1,0.1l0,0c0,0,0,0,0,0s0,0,0,0
	c0,0,0.1-0.1,0.2-0.1c0,0,0,0,0.1-0.1c0,0,0,0,0.1-0.1c0.1,0,0.2-0.1,0.2-0.1c0,0,0,0,0,0v0c0,0,0,0,0,0c0,0,0,0,0,0c0,0,0,0,0.1,0
	s0,0,0,0c0,0,0,0,0,0c0,0,0,0,0,0c0,0,0,0,0,0s0,0-0.1,0l-0.1,0.1c0,0,0,0-0.1,0l0,0c0,0.1-0.1,0.1-0.1,0.1c0,0-0.1,0-0.1-0.1v-0.1
	c0,0,0-0.1,0-0.1c0,0,0-0.1-0.1-0.1l0,0c-0.1,0-0.1-0.1-0.1-0.1c0,0,0-0.1,0-0.1C1.8,9.9,1.9,9.8,2,9.7C2,9.7,2.1,9.6,2.2,9.5l0.1,0
	h0l0,0c0.1-0.1,0.2-0.2,0.3-0.3C2.8,9,3,8.9,3.1,8.8c0.1-0.1,0.3-0.2,0.4-0.4c0.1-0.1,0.2-0.2,0.3-0.3L3.9,8c0,0,0-0.1,0.1-0.1
	c0,0,0,0,0,0c0,0,0,0,0,0c0.1-0.1,0.2-0.2,0.2-0.3c0-0.1,0.1-0.2,0.2-0.3C4.5,7,4.6,6.8,4.5,6.6c0,0,0-0.1,0-0.1c0,0,0,0,0,0
	s0,0,0,0s0,0,0-0.1h0V6.4c0,0,0,0,0-0.1l0,0v0l0,0c0,0,0-0.1-0.1-0.1c0,0,0-0.1-0.1-0.1c0,0,0-0.1-0.1-0.1c0,0,0-0.1-0.1-0.1
	L4.1,5.8c0,0,0,0,0,0c0,0,0,0,0,0c0,0,0,0,0,0c0,0,0,0,0,0c0,0,0-0.1-0.1-0.1c0,0,0-0.1-0.1-0.1l-0.1,0l0,0c0,0,0,0,0-0.1
	c0,0,0,0-0.1,0l0,0l0,0v0c0,0-0.1,0-0.1,0c0,0,0,0-0.1-0.1c0,0,0,0,0,0c0,0,0,0,0,0c0,0,0-0.1,0-0.1c0,0,0,0,0-0.1c0,0,0,0,0-0.1
	l0,0l0,0c0-0.1,0-0.1,0.1-0.1h0.1c0,0,0,0,0-0.1c0,0,0-0.1,0-0.1l0,0c0,0,0,0,0,0l0,0v0h0c0,0,0,0,0,0V4.7l0,0l0,0v0h0v0
	c0,0,0,0-0.1,0l0,0c-0.1,0-0.1,0-0.1,0c0,0,0-0.1,0-0.1c0.1-0.1,0.2-0.3,0.2-0.4C3.7,4,3.8,3.9,3.9,3.8l0.1-0.1c0,0,0,0,0,0
	c0,0,0,0,0,0C4,3.7,4.1,3.6,4.2,3.5c0.1-0.1,0.2-0.2,0.3-0.3c0.1,0,0.1-0.1,0.2-0.1C4.7,3,4.8,3,4.8,3l0-0.1c0,0,0,0,0,0
	c0,0,0,0,0,0L5,2.8l0-0.1c0,0,0,0,0,0c0,0,0,0,0,0c0,0,0-0.1,0-0.1c0,0,0,0,0,0c0,0,0,0,0-0.1c0.1,0,0.1-0.1,0.1-0.1
	c0,0,0-0.1,0.1-0.2c0-0.1,0-0.2,0-0.3c0,0,0,0,0-0.1s0,0,0-0.1c0,0,0-0.1,0-0.1c0,0,0,0,0,0h0v0l0,0C5.2,1.4,5,1.3,4.8,1.2
	c0,0,0,0,0,0c0,0,0,0,0,0H4.7c0,0-0.1,0-0.1,0c0,0-0.1,0-0.2,0H4.1C4,1.3,4,1.4,4,1.5c0,0.1-0.1,0.2-0.2,0.2c0,0,0,0.1,0,0.1
	s0,0.1,0,0.1c0,0.1-0.1,0.2-0.1,0.3c0,0.1-0.1,0.2-0.1,0.3C3.4,2.5,3.4,2.6,3.3,2.7c0,0.1-0.1,0.2-0.1,0.3c0,0,0,0.1,0,0.1
	c0,0,0,0.1,0,0.1c0,0.1,0,0.1,0,0.2c0,0-0.1,0.1-0.1,0.1c0,0,0,0,0,0c0,0,0,0,0,0v0.1c0,0.1,0,0.2-0.1,0.3c0,0.1-0.1,0.2-0.2,0.3
	c0,0.1,0,0.1-0.1,0.2c0,0,0,0,0,0.1c0,0,0,0.1,0,0.2c0,0,0,0.1,0,0.1c0,0,0,0.1,0,0.1l0,0c0,0,0,0.1-0.1,0.1c0,0,0,0.1,0,0.1
	c0,0,0,0,0,0c0,0,0,0,0,0.1c0,0,0,0,0,0v0c0,0.1,0,0.1-0.1,0.2c0,0.1-0.1,0.1-0.1,0.2c0,0,0,0.1-0.1,0.2c0,0.1,0,0.1-0.1,0.2
	c0,0.1,0,0.2-0.1,0.2c0,0.1,0,0.2,0,0.2c0,0,0,0.1,0,0.1c0,0,0,0.1,0,0.1c0,0,0,0.1-0.1,0.1c0,0.2-0.1,0.4-0.1,0.5
	c0,0.2-0.1,0.4-0.2,0.5c0,0.1,0,0.1-0.1,0.2c0,0.1,0,0.1,0,0.2c0,0.1,0,0.1,0,0.2L1.4,8.8c0,0,0,0,0,0s0,0,0,0c0,0.1,0,0.1,0,0.2
	c0,0,0,0.1-0.1,0.1c0,0,0,0.1,0,0.1c0,0,0,0,0,0c0,0,0,0,0,0c0,0,0,0,0,0c0,0.1,0,0.2,0,0.3s0,0.2-0.1,0.3c0,0,0,0,0,0
	c0,0.1,0,0.2,0,0.3c0,0.1,0,0.2,0,0.3c0,0,0,0.1,0,0.1c0,0,0,0.1,0,0.1v0.2C1,10.9,1,11,1,11c0,0-0.1,0-0.1-0.1c0-0.1,0-0.2,0-0.3
	c0,0,0-0.1,0-0.1c0,0,0,0,0,0c0.1,0.1,0.1,0.2,0,0.4c0,0,0,0,0.1-0.1c0,0,0,0,0,0c0,0,0,0,0,0c0,0,0-0.1,0-0.1v-0.3
	c0-0.1,0-0.1,0-0.2s0-0.1,0-0.2v0c0,0,0-0.1,0-0.1V9.8c0,0-0.1-0.1-0.1-0.1S0.6,9.6,0.6,9.6c0,0,0,0,0,0c0,0,0,0,0,0.1v0.1
	c0,0,0,0.1,0,0.1c0,0,0,0,0,0c0,0.1,0,0.2,0,0.2s-0.1,0-0.1,0c0,0,0-0.1,0-0.1c0,0,0-0.1-0.1-0.1c0,0,0,0-0.1,0c0,0,0,0,0,0
	c0,0,0,0,0,0C0.1,10,0,10,0,9.9c0,0,0-0.1,0-0.2c0-0.3,0-0.6,0.1-0.8c0,0,0,0,0-0.1c0,0,0,0,0,0c0.1-0.3,0.1-0.6,0.2-0.9
	C0.4,7.6,0.5,7.3,0.6,7c0-0.1,0-0.2,0.1-0.3c0,0,0-0.1,0-0.1c0.1-0.2,0.1-0.4,0.2-0.5C0.9,5.9,1,5.7,1,5.5c0.1-0.3,0.3-0.6,0.4-0.9
	c0.1-0.3,0.2-0.6,0.3-1l0,0l0,0c0,0-0.1-0.1-0.1-0.2c0,0,0-0.1,0-0.1c0,0,0-0.1,0-0.1l0,0c0,0,0.1-0.1,0.1-0.1
	C1.9,2.9,1.9,2.8,2,2.6c0-0.2,0.1-0.3,0.1-0.5c0,0,0,0,0,0c0.1,0,0.1,0,0.2-0.1c0,0,0,0,0-0.1s0,0,0-0.1c0.1-0.1,0.1-0.2,0.2-0.3
	c0-0.1,0.1-0.2,0.1-0.3c0,0,0,0,0,0c0,0,0,0,0,0c0,0-0.1,0-0.1,0c0,0-0.1,0-0.1,0c-0.1,0-0.1,0-0.2,0H2.2c0,0-0.1,0.1,0,0.1
	c0,0,0,0,0,0c0,0-0.1,0-0.1,0.1c0,0,0,0-0.1,0h0c-0.1,0-0.2,0.1-0.2,0.1c-0.1,0-0.2,0-0.2,0.1H1.4c-0.1,0-0.1,0.1-0.2,0.1
	C1.1,1.8,1.1,1.8,1,1.8c-0.1,0-0.1,0.1-0.1,0.1c0,0,0,0-0.1,0c0,0,0,0-0.1,0C0.6,2.1,0.5,2.1,0.5,2c0,0,0-0.1,0-0.2
	c0,0,0.1-0.1,0.1-0.1c0,0,0.1,0,0.1-0.1l0,0c0,0,0,0,0,0C0.7,1.8,0.6,1.9,0.5,1.9c0,0,0.1,0.1,0.1,0.1c0,0,0,0,0-0.1
	c0,0,0,0,0.1-0.1c0,0,0.1,0,0.1-0.1s0.1,0,0.1-0.1C1,1.6,1.1,1.6,1.1,1.6s0.1,0,0.2-0.1v0l0,0c0,0,0,0,0,0s0,0,0,0l0.1,0
	c0,0,0,0,0,0c0,0,0,0,0-0.1c0,0,0,0,0,0c0,0,0,0-0.1,0c0,0-0.1,0-0.1,0c0,0-0.1,0-0.1,0V1.2C1.2,1.3,1.1,1.3,1.1,1.3
	c0,0-0.1,0-0.1-0.1c0,0,0.1-0.1,0.1-0.1c0,0,0-0.1,0.1-0.1c0,0,0-0.1,0-0.1c0,0,0,0,0,0s0,0,0,0C1,0.9,1,0.9,1,0.9
	c0,0,0.1-0.1,0.1-0.1c0.2-0.1,0.5-0.2,0.7-0.3c0,0,0,0,0.1,0c0,0,0,0,0,0c0.1,0,0.3-0.1,0.4-0.1c0.1,0,0.3-0.1,0.4-0.1
	c0,0,0,0,0.1-0.1c0.1,0,0.1,0,0.2,0c0.1,0,0.1,0,0.2,0c0,0,0.1,0,0.1,0c0.1,0,0.2,0,0.2-0.1v0h0c0,0,0.1,0,0.1,0h0C3.8,0,3.9,0,4,0
	c0.1,0,0.2,0,0.3,0h0.1c0,0,0.1,0,0.1,0c0,0,0.1,0.1,0.1,0.1c0,0,0.1,0,0.1,0.1l0.2,0c0,0,0,0,0.1,0c0,0,0.1,0,0.2,0c0,0,0,0,0,0
	c0,0,0,0,0,0c0,0,0,0,0,0s0,0,0,0l0.1,0c0,0,0,0,0.1,0c0,0,0,0,0.1,0.1c0,0,0,0,0.1,0l0.1,0.1l0,0c0,0,0,0,0.1,0c0,0,0,0,0.1,0.1v0
	h0c0,0,0,0,0,0c0,0,0,0,0,0c0,0,0,0,0,0s0,0,0.1,0l0.1,0.1c0,0,0,0,0,0s0,0,0,0l0,0c0,0,0,0.1,0.1,0.1c0,0.1,0,0.1,0.1,0.2
	c0,0.1,0.1,0.2,0.1,0.3C6.4,1.5,6.4,1.6,6.4,1.7L6.4,1.7z M1.1,0.8L1.1,0.8L1.1,0.8L1.1,0.8z M1.9,6L1.9,6L1.9,6z"/>
<path class="st0" d="M8.2,8C8.2,8,8.2,8,8.2,8C8.1,8.2,8.1,8.2,8.1,8.2s0,0,0,0c0,0,0,0,0,0s0,0.1-0.1,0.2c0,0,0,0,0,0s0,0,0,0
	c0,0,0,0,0,0s0,0,0,0.1c0,0,0,0.1,0,0.1c0,0,0,0.1,0,0.1c0,0,0,0.1-0.1,0.1s0,0.1-0.1,0.1c0,0,0,0,0,0c0,0,0,0,0,0l0,0
	c0,0.1,0,0.1,0,0.2c0,0,0,0.1,0,0.2c0,0,0,0,0,0.1c0,0,0,0,0,0.1c0,0,0,0,0,0c0,0,0,0,0,0s0,0,0,0c0,0,0,0,0,0c0,0.1,0,0.2,0,0.3
	c0,0.1-0.1,0.2-0.1,0.3c0,0,0,0,0,0.1c0,0.1,0,0.2,0,0.2s0,0.1-0.1,0.2v0.2c0,0.1,0,0.1,0,0.2c0,0.2,0,0.3-0.1,0.3
	c-0.1,0-0.1,0-0.2-0.1c0-0.1,0-0.1,0-0.2c0,0,0-0.1,0-0.2c0,0,0-0.1,0-0.1h0c0.1,0.1,0.1,0.1,0.1,0.2c0,0.1,0,0.1-0.1,0.2
	c0,0,0.1,0,0.1-0.1l0-0.1c0,0,0,0,0-0.1c0,0,0,0,0-0.1c0-0.1,0-0.1,0-0.2s0-0.1,0-0.2c0-0.1,0-0.2,0-0.2c0-0.1,0-0.2,0-0.2v0
	c0,0,0,0.1,0,0.2c0,0,0,0.1,0,0.1v-0.1c0,0,0-0.1,0-0.1c0,0,0-0.1,0-0.1s0-0.1,0-0.1c0,0,0,0-0.1,0c0,0,0,0.1,0,0.1
	c0,0.1,0,0.2-0.1,0.2c0,0,0,0,0,0c0,0.1,0,0.2,0,0.1c0-0.1-0.1-0.1-0.2-0.1c0,0,0,0-0.1-0.1c0,0,0,0,0,0c0,0.1,0,0.1-0.1,0.1v0
	c0,0.1-0.1,0.1-0.1,0c0,0,0-0.1,0-0.2c0-0.2,0-0.3,0-0.5s0-0.3,0.1-0.5V9c0,0,0,0,0,0c0,0,0,0,0,0c0-0.2,0.1-0.3,0.1-0.3
	c0,0,0,0,0,0c0,0,0,0,0,0s0-0.1,0.1-0.3c0-0.1,0-0.1,0-0.2c0-0.1,0-0.1,0-0.2c0-0.1,0-0.1,0-0.1C6.9,7.6,7,7.4,7.1,7.2
	C7.2,7,7.2,6.8,7.3,6.6c0.1-0.4,0.3-0.7,0.4-1.1S8,4.7,8.1,4.3c0,0,0,0,0,0c0,0,0,0,0,0C8,4.3,8,4.2,8,4.1c0-0.1,0-0.1,0.1-0.2
	c0,0,0,0,0-0.1c0-0.1,0.1-0.2,0-0.3c0,0,0,0,0,0c0.3-0.3,0.4-0.7,0.4-1.1h0c0,0,0.1,0,0.1,0c0,0,0.1,0,0.1-0.1c0,0,0,0,0-0.1
	c0,0,0,0,0-0.1C8.9,2.1,9,1.9,9.1,1.8c0.1-0.1,0.1-0.3,0.2-0.4c0,0-0.1,0-0.1,0c0,0-0.1,0-0.1,0.1c0,0,0,0,0,0c0,0,0,0,0,0L8.9,1.6
	L8.8,1.8c0,0,0,0-0.1,0.1c0,0,0,0-0.1,0.1c0,0,0,0-0.1,0.1c0,0-0.1,0-0.1,0c-0.1,0-0.1,0-0.1-0.1c0,0,0-0.1,0.1-0.1c0,0,0,0,0-0.1
	c0,0,0,0,0-0.1l0.1-0.1h0c0,0.1,0,0.1-0.1,0.2c0,0,0,0,0,0c0,0,0,0,0,0c0,0,0,0,0,0c0,0,0,0,0,0c0,0,0,0-0.1,0c0,0,0.1,0,0.2,0
	c0,0,0,0,0-0.1c0,0,0,0,0-0.1c0,0,0,0,0.1,0c0,0,0-0.1,0.1-0.1S8.9,1.4,9,1.4c0,0,0.1-0.1,0.1-0.1c0,0,0,0,0,0c0,0,0,0,0,0l0.1-0.1
	l0.1-0.1l0,0l0,0c0,0,0,0,0,0c0,0,0,0,0,0v0c0,0,0,0,0,0c0,0,0,0,0,0c0,0,0,0-0.1,0s0,0-0.1,0c0,0,0,0-0.1,0c0,0,0,0-0.1,0
	c0,0,0,0,0,0c0,0,0,0.1-0.1,0.1c0,0,0,0-0.1,0.1c0,0-0.1,0-0.2,0v0c0,0,0,0,0-0.1c0,0,0-0.1,0-0.1S8.8,1,8.8,1l0,0
	c-0.1,0-0.2,0-0.2,0c0,0,0,0,0-0.1c0,0,0,0,0,0c0,0,0,0,0,0c0.1-0.1,0.1-0.1,0.2-0.2C9,0.6,9.1,0.6,9.2,0.5c0.2-0.1,0.5-0.2,0.7-0.3
	c0,0,0,0,0.1,0s0,0,0.1,0v0c0.1,0,0.2,0,0.3-0.1c0.2,0,0.3,0,0.5,0h0c0,0,0,0,0.1,0c0,0,0,0,0.1,0c0.2,0,0.3,0.1,0.5,0.1
	c0.2,0,0.3,0.1,0.4,0.2c0,0,0,0,0.1,0.1c0,0,0.1,0.1,0.1,0.1l0,0l0,0l0,0h0l0.1,0.1l0.1,0.1c0,0,0,0,0.1,0.1c0,0,0,0,0.1,0.1
	c0,0,0,0.1,0.1,0.1l0.1,0.1l0.1,0.1l0.1,0.1L13,1.4c0,0.1,0.1,0.1,0.2,0.2c0,0,0.1,0.1,0.1,0.1c0,0,0.1,0.1,0.1,0.1
	c0,0,0.1,0.1,0.1,0.2c0.1,0.1,0.1,0.3,0.2,0.4c0,0.1,0.1,0.3,0.2,0.4c0,0.1,0.1,0.3,0.1,0.4c0,0.1,0,0.3,0,0.4c0,0.1,0,0.2,0,0.3
	c0,0.1,0,0.2-0.1,0.3c-0.1,0.2-0.2,0.4-0.3,0.6c-0.2,0.4-0.5,0.7-0.8,1c-0.1,0.1-0.3,0.3-0.5,0.4c-0.2,0.1-0.3,0.2-0.5,0.4
	c-0.2,0.1-0.3,0.2-0.5,0.3c0,0,0,0-0.1,0s0,0-0.1,0c-0.1,0-0.1,0-0.1,0h0c0,0-0.1,0-0.1,0.1c0,0-0.1,0-0.1,0.1
	c-0.1,0-0.2,0.1-0.3,0.1c-0.1,0-0.2,0.1-0.2,0.1c0,0-0.1,0-0.1,0.1c0,0-0.1,0-0.1,0.1c-0.1,0-0.2,0-0.3,0.1c-0.1,0-0.2,0.1-0.3,0.1
	l0,0c0,0-0.1,0-0.1,0.1c0,0-0.1,0-0.1,0c0,0-0.1,0-0.1,0S9,7.8,9,7.8c-0.1,0-0.2,0-0.2,0.1c0,0-0.1,0-0.1,0H8.5c0,0-0.1,0-0.1-0.1
	c0-0.1,0.1-0.1,0.2-0.2c0.1,0,0.1,0,0.2-0.1c0,0,0.1,0,0.2-0.1c0,0,0.1-0.1,0.2-0.2c0.1,0,0.1-0.1,0.1-0.2c-0.1,0-0.1,0-0.2,0
	c-0.1,0-0.1,0-0.2,0c-0.2,0-0.2,0-0.1-0.2C8.8,7,8.9,6.9,9,6.9c0.1,0,0.2-0.1,0.3-0.1l0.3-0.1l0.1,0l0.1-0.1c0.1,0,0.1,0,0.2-0.1
	s0.1,0,0.1-0.1c0,0,0-0.1,0.1-0.1c0,0,0,0,0.1,0c0,0,0.1-0.1,0.1-0.1c0,0,0.1,0,0.2-0.1l0.1,0c0,0,0,0,0,0c0,0,0,0,0,0
	c0,0,0.1-0.1,0.1-0.1c0,0,0.1,0,0.2-0.1c0.1-0.1,0.2-0.1,0.3-0.2c0.1-0.1,0.2-0.1,0.4-0.2c0,0,0.1,0,0.1-0.1c0,0,0,0,0.1-0.1V5.3
	c0,0,0,0,0-0.1l0-0.1c0,0,0.1-0.1,0.1-0.1S12,5,12.1,5c0,0,0,0,0,0c0,0,0,0,0,0c0,0,0,0,0,0c0,0,0,0,0,0l0.1-0.1c0,0,0,0,0-0.1l0,0
	l0-0.1c0,0,0,0,0,0c0,0,0,0,0,0v0l0.1-0.1c0,0,0,0,0-0.1c0,0,0,0,0-0.1c0,0,0-0.1,0-0.1c0,0,0-0.1,0-0.1c0.1-0.2,0.1-0.3,0.1-0.5
	c0-0.1,0-0.3-0.1-0.5c0,0,0-0.1,0-0.1c0,0,0,0,0,0V2.9c0,0,0-0.1,0-0.1c0-0.1-0.1-0.2-0.2-0.3c0-0.1-0.1-0.2-0.2-0.3
	C12.1,2.1,12,2,12,1.9c-0.1-0.1-0.2-0.2-0.3-0.3c-0.1-0.1-0.1-0.2-0.2-0.2c-0.1-0.1-0.1-0.1-0.2-0.2l0,0l0,0c0,0,0,0,0,0
	c0,0,0,0,0,0l-0.1,0c0,0-0.1,0-0.1,0C11,1,11,1,11,1c0,0,0,0,0,0c0,0,0,0,0,0l0,0h-0.1c0,0-0.1,0-0.1,0h0c0,0.1,0,0.1-0.1,0.2
	c0,0.1,0,0.1,0,0.2c-0.1,0.1-0.1,0.3-0.2,0.4c-0.1,0.1-0.1,0.2-0.2,0.3c0,0.1-0.1,0.2-0.2,0.4C10,2.6,9.9,2.7,9.8,2.9
	S9.7,3.2,9.6,3.5l0,0c0,0.1-0.1,0.1-0.1,0.2S9.5,3.8,9.5,3.9c0,0.1,0,0.2,0,0.2c0,0-0.1,0.1-0.1,0.2L9.3,4.3c0,0,0,0,0,0s0,0,0,0
	c0,0.1-0.1,0.3-0.1,0.4C9.1,4.9,9.1,5,9,5.1C9,5.1,9,5.2,9,5.2c0,0,0,0,0,0s0,0,0,0c0,0.1,0,0.1,0,0.2c0,0,0,0.1,0,0.1
	c0,0,0,0.1-0.1,0.1c0,0,0,0,0,0c0,0,0,0,0,0c0,0,0,0.1-0.1,0.2c0,0,0,0,0,0c0,0,0,0,0,0v0c0,0,0,0,0,0.1c0,0,0,0,0,0.1v0
	c0,0.1,0,0.2-0.1,0.3c0,0.1-0.1,0.1-0.1,0.2c0,0.1-0.1,0.3-0.1,0.4c0,0.1-0.1,0.2-0.1,0.3c0,0.1,0,0.2-0.1,0.3c0,0,0,0.1,0,0.1
	C8.2,7.9,8.2,7.9,8.2,8L8.2,8z"/>
</svg>
